<svg fill="none" height="128" viewBox="0 0 128 128" width="128" xmlns="http://www.w3.org/2000/svg"><rect fill="#fef3c7" height="128" rx="10" width="128"/><path d="m10.6667 10.6667v106.6663h106.6663v-106.6663z" stroke="#e8e800" stroke-linecap="round" stroke-linejoin="round" stroke-width="5"/><g fill="#fff" stroke="#343a3f"><path d="m10.6667 17.3333c3.6819 0 6.6666-2.9847 6.6666-6.6666 0-3.68193-2.9847-6.6667-6.6666-6.6667-3.68193 0-6.6667 2.98477-6.6667 6.6667 0 3.6819 2.98477 6.6666 6.6667 6.6666z"/><path d="m10.6667 124c3.6819 0 6.6666-2.985 6.6666-6.667s-2.9847-6.666-6.6666-6.666c-3.68193 0-6.6667 2.984-6.6667 6.666s2.98477 6.667 6.6667 6.667z"/><path d="m117.333 124c3.682 0 6.667-2.985 6.667-6.667s-2.985-6.666-6.667-6.666-6.666 2.984-6.666 6.666 2.984 6.667 6.666 6.667z"/><path d="m117.333 17.3333c3.682 0 6.667-2.9847 6.667-6.6666 0-3.68193-2.985-6.6667-6.667-6.6667s-6.666 2.98477-6.666 6.6667c0 3.6819 2.984 6.6666 6.666 6.6666z"/></g><path d="m11 69c2.7614 0 5-2.2386 5-5s-2.2386-5-5-5c-2.76142 0-5 2.2386-5 5s2.23858 5 5 5z" fill="#343a3f"/><path d="m117 69c2.761 0 5-2.2386 5-5s-2.239-5-5-5-5 2.2386-5 5 2.239 5 5 5z" fill="#343a3f"/><path d="m64 16c2.7614 0 5-2.2386 5-5 0-2.76142-2.2386-5-5-5s-5 2.23858-5 5c0 2.7614 2.2386 5 5 5z" fill="#343a3f"/><path d="m64 122c2.7614 0 5-2.239 5-5s-2.2386-5-5-5-5 2.239-5 5 2.2386 5 5 5z" fill="#343a3f"/><path d="m74 34v60h-40v-60zm-4 4h-32v52h32zm-26 12h20c2 0 2 4 0 4h-20c-2 0-2-4 0-4zm0 8h20c2 0 2 4 0 4h-20c-2 0-2-4 0-4zm0 8h20c2 0 2 4 0 4h-20c-2 0-2-4 0-4zm0 8h20c2 0 2 4 0 4h-20c-2 0-2-4 0-4z" fill="#000"/><path d="m78 86c2 2 10 2 12 0 0 0-4 8-6 8s-6-8-6-8zm0-40c0 2 12 2 12 0v36c0 2-12 2-12 0zm6-12c-6 0-6 2-6 4v4c0 2 12 2 12 0v-4c0-2 0-4-6-4z" fill="#000"/></svg>