<svg fill="none" height="198" viewBox="0 0 198 198" width="198" xmlns="http://www.w3.org/2000/svg"><path d="m98.999 0c-54.676 0-98.999 44.323-98.999 98.999 0 54.675 44.323 98.999 98.999 98.999 54.675 0 98.999-44.324 98.999-98.999 0-54.676-44.324-98.999-98.999-98.999zm0 184.48c-47.209 0-85.479-38.27-85.479-85.478 0-47.209 38.271-85.479 85.479-85.479s85.479 38.271 85.479 85.479-38.271 85.478-85.479 85.478z" fill="#b91c1c"/><path d="m178.454 98.729c0 44.03-35.694 79.724-79.726 79.724-44.033 0-79.728-35.693-79.728-79.724 0-44.033 35.694-79.729 79.728-79.729 44.031 0 79.726 35.696 79.726 79.729z" fill="#f59e0b"/><g fill="#000"><path d="m115.667 49v100h-66.667v-100zm-6.667 6.6667h-53.3333v86.6663h53.3333zm-43.3333 20h33.3333c3.333 0 3.333 6.6666 0 6.6666h-33.3333c-3.3334 0-3.3334-6.6666 0-6.6666zm0 13.3333h33.3333c3.333 0 3.333 6.6667 0 6.6667h-33.3333c-3.3334 0-3.3334-6.6667 0-6.6667zm0 13.333h33.3333c3.333 0 3.333 6.667 0 6.667h-33.3333c-3.3334 0-3.3334-6.667 0-6.667zm0 13.334h33.3333c3.333 0 3.333 6.666 0 6.666h-33.3333c-3.3334 0-3.3334-6.666 0-6.666z"/><path d="m122.333 135.667c3.334 3.333 16.667 3.333 20 0 0 0-6.666 13.333-10 13.333-3.333 0-10-13.333-10-13.333zm0-66.667c0 3.3333 20 3.3333 20 0v60c0 3.333-20 3.333-20 0zm10-20c-10 0-10 3.3333-10 6.6667v6.6666c0 3.3334 20 3.3334 20 0v-6.6666c0-3.3334 0-6.6667-10-6.6667z"/></g></svg>