<svg fill="none" height="198" viewBox="0 0 198 198" width="198" xmlns="http://www.w3.org/2000/svg"><path d="m99 0c-54.6765 0-99 44.3235-99 99 0 54.676 44.3235 99 99 99 54.676 0 99-44.324 99-99 0-54.6765-44.324-99-99-99zm0 184.482c-47.2095 0-85.4799-38.271-85.4799-85.479 0-47.2095 38.2714-85.4799 85.4799-85.4799 47.208 0 85.48 38.2714 85.48 85.4799 0 47.208-38.272 85.479-85.48 85.479z" fill="#a02c2c"/><path d="m178 98.5025c0 43.9045-35.592 79.4975-79.499 79.4975-43.9076 0-79.501-35.592-79.501-79.4975 0-43.9079 35.5924-79.5025 79.501-79.5025 43.906 0 79.499 35.5946 79.499 79.5025z" fill="#878d96"/><path d="m163 98.6225c0 10.8485-8.386 19.6435-18.73 19.6435-10.345 0-18.73-8.795-18.73-19.6435 0-10.8489 8.385-38.0541 18.73-38.0541 10.344 0 18.73 27.2052 18.73 38.0541z" fill="#99c94f"/><g fill="#8f5a46"><path d="m144.308 133.971c-.521 0-.943-.442-.943-.988v-43.6114c0-.5455.422-.9883.943-.9883.52 0 .942.4428.942.9883v43.6114c.001.545-.422.988-.942.988z"/><path d="m144.309 99.0494c-.255 0-.507-.1057-.692-.3172-.354-.4002-.331-1.0258.052-1.3964l5.636-5.4669c.381-.3706.976-.3469 1.331.0543.353.4013.33 1.0258-.053 1.3964l-5.635 5.468c-.182.1749-.411.2618-.639.2618z"/><path d="m144.308 107.45c-.229 0-.459-.087-.64-.262l-7.872-7.6356c-.382-.3706-.405-.9961-.052-1.3964.353-.4012.95-.4259 1.332-.0553l7.872 7.6353c.382.37.406.996.052 1.396-.186.211-.439.318-.692.318z"/></g><path d="m160.299 133.924h-58.03c-.364 0-.659-.497-.659-1.111 0-.615.295-1.112.659-1.112h58.03c.364 0 .659.497.659 1.112 0 .614-.295 1.111-.659 1.111z" fill="#577628"/><path d="m129.402 132.204h-89.7996v-45.1224h18.5795l26.3203-28.4102 26.3208 28.4102h18.579z" fill="#e6be94"/><path d="m93.7918 112.149h-18.5792v20.055h18.5792z" fill="#996459"/><path d="m93.4047 105.465h-17.805c-.2139 0-.3871.187-.3871.417v6.267h18.5792v-6.267c0-.23-.1732-.417-.3871-.417z" fill="#4bb9ec"/><path d="m90.8133 66.3877c.2389-.6251.8044-1.0316 1.4304-1.0316h29.4173c.529 0 1.022.2921 1.306.7736l10.838 18.3831c.304.5157.322 1.1669.052 1.7021-.273.5337-.793.8665-1.358.8665h-23.224c-.412 0-.805-.1763-1.095-.4897l-17.0309-18.3831c-.4432-.4779-.5763-1.1959-.3358-1.8209z" fill="#ff4f19"/><path d="m78.2337 66.3877c-.239-.6253-.8046-1.0316-1.4304-1.0316h-29.4171c-.5292 0-1.0221.2921-1.3064.7736l-10.8379 18.3831c-.3038.5157-.322 1.1669-.0514 1.7021.2723.5337.7923.8667 1.3578.8667h23.224c.4113 0 .8043-.1763 1.0946-.4897l17.031-18.3831c.443-.4781.5761-1.1961.3358-1.8211z" fill="#ff4f19"/><path d="m110.844 88.73c-.396 0-.792-.1631-1.095-.4896l-25.2044-27.2058-25.2046 27.2058c-.6048.6528-1.5847.6528-2.1895 0-.6048-.6529-.6048-1.7105 0-2.3633l26.2995-28.3875c.6048-.6528 1.5846-.6528 2.1894 0l26.2996 28.3875c.605.6528.605 1.7104 0 2.3633-.303.3263-.699.4896-1.095.4896z" fill="#e3001e"/><path d="m84.5448 97.1088c5.1305 0 9.2896-4.4893 9.2896-10.0272 0-5.5378-4.1591-10.0271-9.2896-10.0271s-9.2896 4.4893-9.2896 10.0271c0 5.5379 4.1591 10.0272 9.2896 10.0272z" fill="#ffebb7"/><path d="m107.726 97.9443c0-2.3075-1.733-4.178-3.87-4.178-2.138 0-3.8711 1.8705-3.8711 4.178 0 .2862.0271.5655.0781.8356h-.0781v6.6851h7.7411v-6.6851h-.078c.051-.2701.078-.5494.078-.8356z" fill="#4bb9ec"/><path d="m103.898 92.0952c-2.988 0-5.419 2.6242-5.419 5.8492v7.5206c0 .923.6925 1.671 1.548 1.671h7.742c.855 0 1.548-.748 1.548-1.671v-7.5206c0-3.225-2.431-5.8492-5.419-5.8492zm0 3.3424c1.281 0 2.322 1.1245 2.322 2.5068v.8355h-4.644v-.8355c0-1.3823 1.041-2.5068 2.322-2.5068zm-2.322 8.3564v-1.672h4.644v1.672z" fill="#7e5c62"/><path d="m69.0621 113.821h-7.7413v10.027h7.7413z" fill="#4bb9ec"/><path d="m69.0619 112.149h-7.7413c-.8558 0-1.5483.748-1.5483 1.672v10.027c0 .924.6925 1.671 1.5483 1.671h7.7413c.8558 0 1.5483-.747 1.5483-1.671v-10.027c0-.924-.6925-1.672-1.5483-1.672zm-1.5483 3.343v1.671h-4.6448v-1.671zm-4.6448 6.685v-1.672h4.6448v1.672z" fill="#7e5c62"/><path d="m55.0853 113.821h-7.7413v10.027h7.7413z" fill="#4bb9ec"/><path d="m55.0851 112.149h-7.7413c-.8558 0-1.5483.748-1.5483 1.672v10.027c0 .924.6925 1.671 1.5483 1.671h7.7413c.8558 0 1.5483-.747 1.5483-1.671v-10.027c0-.924-.6925-1.672-1.5483-1.672zm-1.5482 3.343v1.671h-4.6448v-1.671zm-4.6448 6.685v-1.672h4.6448v1.672z" fill="#7e5c62"/><path d="m121.703 113.821h-7.741v10.027h7.741z" fill="#4bb9ec"/><path d="m121.703 112.149h-7.741c-.856 0-1.549.748-1.549 1.672v10.027c0 .924.693 1.671 1.549 1.671h7.741c.856 0 1.548-.747 1.548-1.671v-10.027c0-.924-.692-1.672-1.548-1.672zm-1.548 3.343v1.671h-4.645v-1.671zm-4.645 6.685v-1.672h4.645v1.672z" fill="#7e5c62"/><path d="m107.726 113.821h-7.7409v10.027h7.7409z" fill="#4bb9ec"/><path d="m107.726 112.149h-7.7411c-.8558 0-1.5483.748-1.5483 1.672v10.027c0 .924.6925 1.671 1.5483 1.671h7.7411c.856 0 1.549-.747 1.549-1.671v-10.027c0-.924-.693-1.672-1.549-1.672zm-1.548 3.343v1.671h-4.645v-1.671zm-4.645 6.685v-1.672h4.645v1.672z" fill="#7e5c62"/><path d="m121.618 97.9443c0-2.3075-1.732-4.178-3.87-4.178s-3.871 1.8705-3.871 4.178c0 .2862.027.5655.078.8356h-.078v6.6851h7.741v-6.6851h-.078c.051-.2701.078-.5494.078-.8356z" fill="#4bb9ec"/><path d="m117.79 92.0952c-2.988 0-5.419 2.6242-5.419 5.8492v7.5206c0 .923.692 1.671 1.548 1.671h7.742c.855 0 1.548-.748 1.548-1.671v-7.5206c0-3.225-2.431-5.8492-5.419-5.8492zm0 3.3424c1.281 0 2.322 1.1245 2.322 2.5068v.8355h-4.644v-.8355c0-1.3823 1.041-2.5068 2.322-2.5068zm-2.322 8.3564v-1.672h4.644v1.672z" fill="#7e5c62"/><path d="m55.043 97.9443c0-2.3075-1.7329-4.178-3.8707-4.178s-3.8707 1.8705-3.8707 4.178c0 .2862.0273.5655.078.8356h-.078v6.6851h7.7414v-6.6851h-.078c.0507-.2701.078-.5494.078-.8356z" fill="#4bb9ec"/><path d="m51.2145 92.0952c-2.9878 0-5.419 2.6242-5.419 5.8492v7.5206c0 .923.6925 1.671 1.5483 1.671h7.7413c.8558 0 1.5483-.748 1.5483-1.671v-7.5206c0-3.225-2.4312-5.8492-5.4189-5.8492zm0 3.3424c1.2806 0 2.3224 1.1245 2.3224 2.5068v.8355h-4.6448v-.8355c0-1.3823 1.0418-2.5068 2.3224-2.5068zm-2.3224 8.3564v-1.672h4.6448v1.672z" fill="#7e5c62"/><path d="m68.9349 97.9443c0-2.3075-1.7329-4.178-3.8706-4.178-2.1378 0-3.8707 1.8705-3.8707 4.178 0 .2862.0273.5655.078.8356h-.078v6.6851h7.7413v-6.6851h-.078c.0508-.2701.078-.5494.078-.8356z" fill="#4bb9ec"/><path d="m65.1067 92.0952c-2.9878 0-5.419 2.6242-5.419 5.8492v7.5206c0 .923.6925 1.671 1.5483 1.671h7.7413c.8558 0 1.5483-.748 1.5483-1.671v-7.5206c0-3.225-2.4314-5.8492-5.4189-5.8492zm0 3.3424c1.2806 0 2.3224 1.1245 2.3224 2.5068v.8355h-4.6448v-.8355c0-1.3823 1.0415-2.5068 2.3224-2.5068zm-2.3224 8.3564v-1.672h4.6448v1.672z" fill="#7e5c62"/><path d="m84.5446 98.7799c-5.9761 0-10.8379-5.2477-10.8379-11.6983s4.8618-11.6984 10.8379-11.6984 10.8379 5.2478 10.8379 11.6984-4.8618 11.6983-10.8379 11.6983zm0-20.0543c-4.2684 0-7.7414 3.7483-7.7414 8.356s3.473 8.3559 7.7414 8.3559 7.7413-3.7482 7.7413-8.3559-3.4729-8.356-7.7413-8.356z" fill="#7e5c62"/><path d="m90.7376 103.794h-12.3861c-2.5612 0-4.6448 2.249-4.6448 5.013v23.397c0 .924.6925 1.671 1.5483 1.671s1.5482-.747 1.5482-1.671v-18.383h6.1507v18.383h3.0966v-18.383h6.2354v18.383c0 .924.6925 1.671 1.5483 1.671s1.5483-.747 1.5483-1.671v-23.397c0-2.764-2.0836-5.013-4.6449-5.013zm1.5483 6.684h-15.4827v-1.671c0-.922.694-1.671 1.5483-1.671h12.3861c.8543 0 1.5483.749 1.5483 1.671z" fill="#7e5c62"/><path d="m132.541 133.875h-95.9926c-.8558 0-1.5483-.748-1.5483-1.671 0-.924.6925-1.671 1.5483-1.671h95.9926c.856 0 1.548.747 1.548 1.671 0 .923-.692 1.671-1.548 1.671z" fill="#5c546a"/><path d="m47.6066 132.772c-.0463-.064-.1189-.101-.196-.101h-.2632c0-.033-.0062-.066-.0194-.099-.9823-2.397-2.8405-3.989-5.5235-4.731-.0978-.027-.2008.011-.2605.095s-.0634.197-.0091.285c.8382 1.359 1.4447 3.018 1.843 5.062-1.4799-1.373-3.1962-1.993-5.7214-2.098-.1015-.005-.1987.06-.2371.159s-.012.213.0658.284c1.6664 1.51 2.4572 3.563 2.6446 6.865.0002.005.0027.008.0032.012.0024.024.0081.046.0169.068.0024.006.0039.013.0066.019.0012.002.0014.005.0027.007.0117.023.0271.042.0445.059.0042.004.009.008.0137.011.0166.015.0345.027.0543.036.0071.003.0137.007.021.01.0257.009.0524.016.0805.016h.0005.0003 5.6439c.1083 0 .2038-.074.2346-.181l1.5925-5.555c.022-.076.0078-.159-.0384-.223z" fill="#719c40"/><path d="m59.2043 131.344c-.0384-.099-.1319-.161-.2371-.159-2.5249.105-4.2412.725-5.7214 2.098.3983-2.044 1.0048-3.703 1.843-5.062.0544-.088.0504-.201-.009-.285-.0595-.084-.163-.121-.2606-.095-2.4358.674-4.1896 2.051-5.2277 4.093l-1.1426-4.628c-.0276-.112-.1252-.19-.237-.19s-.2095.078-.2371.19l-2.7432 11.11c-.0332.135.0458.273.1767.307.1314.035.2642-.047.2975-.182l.0154-.063h4.2882l.0042.033c.0156.126.1196.22.2424.22h2.1951c.0796 0 .1471-.042.1919-.103l3.5999.103h.0069c.0325 0 .0636-.007.0922-.019.011-.005.0193-.014.0296-.02.0162-.01.0333-.018.0467-.032.0096-.009.0155-.022.0235-.033.0103-.014.0223-.027.0296-.043.0062-.014.0074-.03.011-.045.004-.015.0106-.03.0115-.046.1875-3.302.9782-5.355 2.6448-6.865.0779-.071.104-.185.0656-.284z" fill="#7fb241"/><path d="m57.6265 138.226h-18.8293c-.5438 0-.9864.456-.9864 1.018 0 .561.4426 1.018.9864 1.018h18.8293c.5441 0 .9865-.457.9865-1.018 0-.562-.4424-1.018-.9865-1.018z" fill="#a07e63"/><path d="m58.6165 132.772c-.0463-.064-.1189-.101-.196-.101h-.2633c0-.033-.0061-.066-.0193-.099-.9823-2.397-2.8405-3.989-5.5235-4.731-.0979-.027-.2009.011-.2606.095s-.0633.197-.009.285c.8382 1.359 1.4447 3.018 1.843 5.062-1.4799-1.373-3.1962-1.993-5.7214-2.098-.1015-.005-.1987.06-.2371.159s-.012.213.0658.284c1.6664 1.51 2.4572 3.563 2.6446 6.865.0002.005.0027.008.0032.012.0024.024.008.046.0169.068.0024.006.0039.013.0066.019.0012.002.0014.005.0027.007.0117.023.0271.042.0445.059.0041.004.009.008.0137.011.0166.015.0345.027.0543.036.0071.003.0137.007.021.01.0257.009.0524.016.0805.016h.0005.0003 5.6438c.1084 0 .2038-.074.2347-.181l1.5925-5.555c.022-.076.0078-.159-.0384-.223z" fill="#719c40"/><path d="m70.2142 131.344c-.0384-.099-.1319-.161-.2371-.159-2.5249.105-4.2412.725-5.7214 2.098.3983-2.044 1.0048-3.703 1.843-5.062.0543-.088.0504-.201-.009-.285-.0595-.084-.163-.121-.2606-.095-2.4358.674-4.1896 2.051-5.2277 4.093l-1.1426-4.628c-.0276-.112-.1252-.19-.237-.19-.1119 0-.2095.078-.2371.19l-2.7432 11.11c-.0333.135.0458.273.1767.307.1314.035.2642-.047.2975-.182l.0154-.063h4.2882l.0042.033c.0156.126.1196.22.2424.22h2.1951c.0795 0 .1471-.042.1918-.103l3.6.103h.0069c.0325 0 .0636-.007.0922-.019.011-.005.0193-.014.0296-.02.0161-.01.0333-.018.0467-.032.0096-.009.0154-.022.0235-.033.0103-.014.0223-.027.0296-.043.0061-.014.0074-.03.011-.045.0039-.015.0106-.03.0115-.046.1874-3.302.9782-5.355 2.6448-6.865.0778-.071.104-.185.0656-.284z" fill="#7fb241"/><path d="m68.6364 138.226h-18.8292c-.5439 0-.9865.456-.9865 1.018 0 .561.4426 1.018.9865 1.018h18.8292c.5441 0 .9865-.457.9865-1.018 0-.562-.4424-1.018-.9865-1.018z" fill="#a07e63"/></svg>