<svg width="128" height="128" fill="none" version="1.1" viewBox="0 0 128 128" xmlns="http://www.w3.org/2000/svg"><rect width="128" height="128" rx="10" fill="#fee2e2"/><path d="m10.667 10.667v106.67h106.67v-106.67z" stroke="#e8e800" stroke-linecap="round" stroke-linejoin="round" stroke-width="5"/><g fill="#fff" stroke="#343a3f"><path d="m10.667 17.333c3.6819 0 6.6666-2.9847 6.6666-6.6666 0-3.6819-2.9847-6.6667-6.6666-6.6667-3.6819 0-6.6667 2.9848-6.6667 6.6667 0 3.6819 2.9848 6.6666 6.6667 6.6666z"/><path d="m10.667 124c3.6819 0 6.6666-2.985 6.6666-6.667s-2.9847-6.666-6.6666-6.666c-3.6819 0-6.6667 2.984-6.6667 6.666s2.9848 6.667 6.6667 6.667z"/><path d="m117.33 124c3.682 0 6.667-2.985 6.667-6.667s-2.985-6.666-6.667-6.666-6.666 2.984-6.666 6.666 2.984 6.667 6.666 6.667z"/><path d="m117.33 17.333c3.682 0 6.667-2.9847 6.667-6.6666 0-3.6819-2.985-6.6667-6.667-6.6667s-6.666 2.9848-6.666 6.6667c0 3.6819 2.984 6.6666 6.666 6.6666z"/></g><g fill="#343a3f"><path d="m11 69c2.7614 0 5-2.2386 5-5s-2.2386-5-5-5c-2.7614 0-5 2.2386-5 5s2.2386 5 5 5z"/><path d="m117 69c2.761 0 5-2.2386 5-5s-2.239-5-5-5-5 2.2386-5 5 2.239 5 5 5z"/><path d="m64 16c2.7614 0 5-2.2386 5-5 0-2.7614-2.2386-5-5-5s-5 2.2386-5 5c0 2.7614 2.2386 5 5 5z"/><path d="m64 122c2.7614 0 5-2.239 5-5s-2.2386-5-5-5-5 2.239-5 5 2.2386 5 5 5z"/></g><path d="m92.3439 48.3627-26.1506-8.0343c-1.425-.4379-2.9625-.4379-4.3866 0l-26.1515 8.0343c-2.2069.6778-2.2069 3.5963 0 4.2741l4.559 1.4006c-1.0003 1.2366-1.6153 2.745-1.6762 4.3969-.9028.5175-1.5385 1.4512-1.5385 2.5659 0 1.0107.5325 1.861 1.2994 2.4047l-2.3934 10.77c-.2082.9366.5043 1.8253 1.4634 1.8253h5.2603c.96 0 1.6725-.8887 1.4644-1.8253l-2.3934-10.77c.7668-.5437 1.2993-1.394 1.2993-2.4047 0-1.0847-.6065-1.9922-1.4681-2.519.0713-1.4082.7913-2.6532 1.9397-3.4425l18.3347 5.6334c.8494.2606 2.4787.5859 4.3865 0l26.1516-8.0344c2.2078-.6787 2.2078-3.5962 0-4.275zm-25.2703 16.1772c-2.6747.8213-4.9538.3675-6.1491 0l-13.5956-4.1765-2.3294 17.6368c0 3.3141 9.0588 6 19 6 9.9413 0 19-2.6859 19-6l-2.3293-17.6378z" fill="#000"/></svg>
