<svg width="198" height="198" version="1.1" viewBox="0 0 198 198" xmlns="http://www.w3.org/2000/svg"><path d="m98.999 0c-54.676 0-98.999 44.323-98.999 98.999 0 54.675 44.323 98.999 98.999 98.999 54.675 0 98.999-44.324 98.999-98.999 0-54.676-44.324-98.999-98.999-98.999zm0 184.48c-47.209 0-85.479-38.27-85.479-85.478 0-47.209 38.271-85.479 85.479-85.479s85.479 38.271 85.479 85.479-38.271 85.478-85.479 85.478z" fill="#DC2626"/><path d="m178.45 98.729c0 44.03-35.694 79.724-79.726 79.724-44.033 0-79.728-35.693-79.728-79.724 0-44.033 35.694-79.729 79.728-79.729 44.031 0 79.726 35.696 79.726 79.729z" fill="#FBBF24"/><path d="m146.24 72.938-43.585-13.391c-2.375-0.7297-4.937-0.7297-7.3105 0l-43.586 13.391c-3.6781 1.1297-3.6781 5.9937 0 7.1234l7.5984 2.3344c-1.6672 2.0609-2.6922 4.575-2.7937 7.3281-1.5047 0.8625-2.5641 2.4188-2.5641 4.2766 0 1.6844 0.8875 3.1016 2.1656 4.0078l-3.989 17.95c-0.3469 1.561 0.8406 3.042 2.439 3.042h8.7672c1.6 0 2.7875-1.481 2.4407-3.042l-3.9891-17.95c1.2781-0.9062 2.1656-2.3234 2.1656-4.0078 0-1.8078-1.0109-3.3203-2.4469-4.1984 0.1188-2.3469 1.3188-4.4219 3.2329-5.7375l30.558 9.389c1.4156 0.4344 4.1312 0.9766 7.311 0l43.586-13.391c3.68-1.1313 3.68-5.9938 0-7.125zm-42.117 26.962c-4.4582 1.3691-8.2566 0.6121-10.249 0l-22.659-6.961-3.8822 29.395c0 5.523 15.098 10 31.667 10 16.569 0 31.667-4.477 31.667-10l-3.882-29.397-22.661 6.9625z"/></svg>
