<svg fill="none" height="128" viewBox="0 0 128 128" width="128" xmlns="http://www.w3.org/2000/svg"><rect fill="#fef9c3" height="128" rx="10" width="128"/><path d="m10.6667 10.6667v106.6663h106.6663v-106.6663z" stroke="#e8e800" stroke-linecap="round" stroke-linejoin="round" stroke-width="5"/><g fill="#fff" stroke="#343a3f"><path d="m10.6667 17.3333c3.6819 0 6.6666-2.9847 6.6666-6.6666 0-3.68193-2.9847-6.6667-6.6666-6.6667-3.68193 0-6.6667 2.98477-6.6667 6.6667 0 3.6819 2.98477 6.6666 6.6667 6.6666z"/><path d="m10.6667 124c3.6819 0 6.6666-2.985 6.6666-6.667s-2.9847-6.666-6.6666-6.666c-3.68193 0-6.6667 2.984-6.6667 6.666s2.98477 6.667 6.6667 6.667z"/><path d="m117.333 124c3.682 0 6.667-2.985 6.667-6.667s-2.985-6.666-6.667-6.666-6.666 2.984-6.666 6.666 2.984 6.667 6.666 6.667z"/><path d="m117.333 17.3333c3.682 0 6.667-2.9847 6.667-6.6666 0-3.68193-2.985-6.6667-6.667-6.6667s-6.666 2.98477-6.666 6.6667c0 3.6819 2.984 6.6666 6.666 6.6666z"/></g><path d="m11 69c2.7614 0 5-2.2386 5-5s-2.2386-5-5-5c-2.76142 0-5 2.2386-5 5s2.23858 5 5 5z" fill="#343a3f"/><path d="m117 69c2.761 0 5-2.2386 5-5s-2.239-5-5-5-5 2.2386-5 5 2.239 5 5 5z" fill="#343a3f"/><path d="m64 16c2.7614 0 5-2.2386 5-5 0-2.76142-2.2386-5-5-5s-5 2.23858-5 5c0 2.7614 2.2386 5 5 5z" fill="#343a3f"/><path d="m64 122c2.7614 0 5-2.239 5-5s-2.2386-5-5-5-5 2.239-5 5 2.2386 5 5 5z" fill="#343a3f"/><path d="m63.4984 52.75c5.1803 0 9.376-4.1953 9.376-9.375s-4.1957-9.375-9.376-9.375-9.3761 4.1953-9.3761 9.375 4.1958 9.375 9.3761 9.375zm-6.2585 29.1562 3.0003-3.75-7.2078-6-5.3796 6.7266c-1.3361 1.6641-1.3712 4.0313-.0937 5.7422l5.6256 7.5c.9259 1.2305 2.3323 1.875 3.7504 1.875.9728 0 1.969-.3047 2.8129-.9375 2.0744-1.5469 2.4846-4.4883.9376-6.5625zm16.7245-9.75-7.2078 6 3.0003 3.75-3.4457 4.5938c-1.547 2.0742-1.1368 5.0156.9376 6.5625.8439.6328 1.8283.9375 2.8128.9375 1.4299 0 2.8363-.6445 3.7505-1.875l5.6256-7.5c1.2775-1.7109 1.2423-4.0781-.0938-5.7422zm11.181-21.164c-1.4885-2.1211-4.4068-2.625-6.5281-1.1484l-4.7584 3.3398c-6.1764 4.3359-14.5563 4.3359-20.7211 0l-4.7583-3.3281c-2.1214-1.4883-5.0397-.9727-6.5281 1.1367-1.4885 2.1211-.9728 5.039 1.1368 6.5273l4.7584 3.3399c1.9924 1.3945 4.1489 2.4492 6.3757 3.2695v3.6211h18.7521v-3.6094c2.2269-.8203 4.3834-1.875 6.3758-3.2695l4.7583-3.3399c2.1214-1.5 2.6253-4.4179 1.1369-6.539z" fill="#000"/></svg>