<svg height="128" viewBox="0 0 128 128" width="128" xmlns="http://www.w3.org/2000/svg"><rect fill="#d0e2ff" height="122" rx="9" stroke="#4589ff" stroke-width="6" width="122" x="3" y="3"/><path d="m63.331 49c6.907 0 12.501-5.5938 12.501-12.5s-5.5944-12.5-12.501-12.5c-6.9071 0-12.502 5.5938-12.502 12.5s5.5944 12.5 12.502 12.5zm-8.3447 38.875 4.0004-5-9.6105-8-7.1726 8.9688c-1.7815 2.2187-1.8284 5.375-.1251 7.6562l7.5009 10c1.2345 1.641 3.1097 2.5 5.0006 2.5 1.297 0 2.6253-.406 3.7504-1.25 2.7659-2.062 3.3129-5.9844 1.2501-8.75zm22.299-13-9.6105 8 4.0005 5-4.5943 6.125c-2.0628 2.7656-1.5158 6.688 1.2501 8.75 1.1252.844 2.4378 1.25 3.7504 1.25 1.9065 0 3.7817-.859 5.0006-2.5l7.5009-10c1.7033-2.2812 1.6564-5.4375-.125-7.6562zm14.908-28.219c-1.9846-2.8281-5.8757-3.5-8.7041-1.5312l-6.3445 4.4531c-8.2353 5.7813-19.408 5.7813-27.628 0l-6.3445-4.4375c-2.8284-1.9844-6.7195-1.2968-8.7041 1.5156-1.9846 2.8282-1.297 6.7188 1.5158 8.7032l6.3445 4.4531c2.6565 1.8594 5.5319 3.2656 8.5009 4.3594v4.8281h25.003v-4.8125c2.9691-1.0937 5.8444-2.5 8.5009-4.3594l6.3445-4.4531c2.8285-2 3.5004-5.8906 1.5158-8.7188z"/></svg>