<svg fill="none" height="128" viewBox="0 0 128 128" width="128" xmlns="http://www.w3.org/2000/svg"><rect fill="#ffedd5" height="128" rx="10" width="128"/><path d="m10.6667 10.6667v106.6663h106.6663v-106.6663z" stroke="#e8e800" stroke-linecap="round" stroke-linejoin="round" stroke-width="5"/><path d="m10.6667 17.3333c3.6819 0 6.6666-2.9847 6.6666-6.6666 0-3.68193-2.9847-6.6667-6.6666-6.6667-3.68193 0-6.6667 2.98477-6.6667 6.6667 0 3.6819 2.98477 6.6666 6.6667 6.6666z" fill="#fff" stroke="#343a3f"/><path d="m10.6667 124c3.6819 0 6.6666-2.985 6.6666-6.667s-2.9847-6.666-6.6666-6.666c-3.68193 0-6.6667 2.984-6.6667 6.666s2.98477 6.667 6.6667 6.667z" fill="#fff" stroke="#343a3f"/><path d="m117.333 124c3.682 0 6.667-2.985 6.667-6.667s-2.985-6.666-6.667-6.666-6.666 2.984-6.666 6.666 2.984 6.667 6.666 6.667z" fill="#fff" stroke="#343a3f"/><path d="m117.333 17.3333c3.682 0 6.667-2.9847 6.667-6.6666 0-3.68193-2.985-6.6667-6.667-6.6667s-6.666 2.98477-6.666 6.6667c0 3.6819 2.984 6.6666 6.666 6.6666z" fill="#fff" stroke="#343a3f"/><path d="m11 69c2.7614 0 5-2.2386 5-5s-2.2386-5-5-5c-2.76142 0-5 2.2386-5 5s2.23858 5 5 5z" fill="#343a3f"/><path d="m117 69c2.761 0 5-2.2386 5-5s-2.239-5-5-5-5 2.2386-5 5 2.239 5 5 5z" fill="#343a3f"/><path d="m64 16c2.7614 0 5-2.2386 5-5 0-2.76142-2.2386-5-5-5s-5 2.23858-5 5c0 2.7614 2.2386 5 5 5z" fill="#343a3f"/><path d="m64 122c2.7614 0 5-2.239 5-5s-2.2386-5-5-5-5 2.239-5 5 2.2386 5 5 5z" fill="#343a3f"/><g stroke="#000" stroke-linecap="round" stroke-linejoin="round"><path d="m64 50.0439v41.9561m0-41.9561c-3.6338-2.5044-8.568-4.0439-14-4.0439s-10.3662 1.5395-14 4.0439v41.9561c3.6338-2.5045 8.568-4.0439 14-4.0439s10.3662 1.5394 14 4.0439m0-41.9561c3.6338-2.5044 8.568-4.0439 14-4.0439 5.4351 0 10.3662 1.5395 14 4.0439v41.9561c-3.6338-2.5045-8.5649-4.0439-14-4.0439-5.432 0-10.3662 1.5394-14 4.0439" stroke-width="4"/><path d="m42 58.5s5-1.5 8.5-1.5 8.5 1.5 8.5 1.5" stroke-width="2"/><path d="m42 63.5s5-1.5 8.5-1.5 8.5 1.5 8.5 1.5" stroke-width="2"/><path d="m42 68.5s5-1.5 8.5-1.5 8.5 1.5 8.5 1.5" stroke-width="2"/><path d="m42 73.5s5-1.5 8.5-1.5 8.5 1.5 8.5 1.5" stroke-width="2"/><path d="m42 78.5s5-1.5 8.5-1.5 8.5 1.5 8.5 1.5" stroke-width="2"/><path d="m42 83.5s5-1.5 8.5-1.5 8.5 1.5 8.5 1.5" stroke-width="2"/><path d="m42 53.5s5-1.5 8.5-1.5 8.5 1.5 8.5 1.5" stroke-width="2"/><path d="m69 58.5s5-1.5 8.5-1.5 8.5 1.5 8.5 1.5" stroke-width="2"/><path d="m69 63.5s5-1.5 8.5-1.5 8.5 1.5 8.5 1.5" stroke-width="2"/><path d="m69 68.5s5-1.5 8.5-1.5 8.5 1.5 8.5 1.5" stroke-width="2"/><path d="m69 73.5s5-1.5 8.5-1.5 8.5 1.5 8.5 1.5" stroke-width="2"/><path d="m69 78.5s5-1.5 8.5-1.5 8.5 1.5 8.5 1.5" stroke-width="2"/><path d="m69 83.5s5-1.5 8.5-1.5 8.5 1.5 8.5 1.5" stroke-width="2"/><path d="m69 53.5s5-1.5 8.5-1.5 8.5 1.5 8.5 1.5" stroke-width="2"/><path d="m36 42 28-6 28 6" stroke-width="4"/></g></svg>