<svg width="128" height="128" fill="none" version="1.1" viewBox="0 0 128 128" xmlns="http://www.w3.org/2000/svg"><clipPath id="a"><path d="m24 24h80v80h-80z"/></clipPath><rect x="3" y="3" width="122" height="122" rx="9" fill="#facc15" stroke="#d97706" stroke-width="6"/><g clip-path="url(#a)" stroke="#000" stroke-linecap="round" stroke-linejoin="round"><g stroke-width="3"><path d="m31.467 63.488s8-1.9458 13.6-1.9458 13.6 1.9458 13.6 1.9458"/><path d="m31.467 71.434s8-1.9458 13.6-1.9458 13.6 1.9458 13.6 1.9458"/><path d="m31.467 79.379s8-1.9458 13.6-1.9458 13.6 1.9458 13.6 1.9458"/><path d="m31.467 87.325s8-1.9458 13.6-1.9458 13.6 1.9458 13.6 1.9458"/><path d="m31.467 55.542s8-1.9458 13.6-1.9458 13.6 1.9458 13.6 1.9458"/><path d="m69.867 63.488s8-1.9458 13.6-1.9458 13.6 1.9458 13.6 1.9458"/><path d="m69.867 71.434s8-1.9458 13.6-1.9458 13.6 1.9458 13.6 1.9458"/><path d="m69.867 79.379s8-1.9458 13.6-1.9458 13.6 1.9458 13.6 1.9458"/><path d="m69.867 87.325s8-1.9458 13.6-1.9458 13.6 1.9458 13.6 1.9458"/><path d="m69.867 55.542s8-1.9458 13.6-1.9458 13.6 1.9458 13.6 1.9458"/></g><path d="m64 48.099v52.901m0-52.901c-4.8796-3.1578-11.506-5.0989-18.8-5.0989s-13.92 1.9411-18.8 5.0989v52.901c4.8796-3.1578 11.506-5.0989 18.8-5.0989s13.92 1.9411 18.8 5.0989m0-52.901c4.8796-3.1578 11.506-5.0989 18.8-5.0989 7.2986 0 13.92 1.9411 18.8 5.0989v52.901c-4.8796-3.1578-11.501-5.0989-18.8-5.0989-7.2944 0-13.92 1.9411-18.8 5.0989" stroke-width="5"/><path d="m27 35 37-8 37 8" stroke-width="5"/></g></svg>
