<svg fill="none" height="128" viewBox="0 0 128 128" width="128" xmlns="http://www.w3.org/2000/svg"><rect fill="#24a148" height="128" rx="10" width="128"/><path d="m29.1457 72.5776c0-3.3137 2.6863-6 6-6h73.8003c1.051 0 1.594 1.752.842 2.4861-1.881 1.8352-3.86 4.6899-3.86 8.5746 0 4.0098 2.109 6.9825 4.041 8.8645.744.7248.213 2.4021-.826 2.4021h-73.9973c-3.3137 0-6-2.6863-6-6z" fill="#000"/><g stroke="#000" stroke-linecap="round" stroke-linejoin="round" stroke-width="2"><path d="m71.1729 30.4596c0 5.7653-4.2772 12.5269-12.8317 12.5269s-12.8317-6.7616-12.8317-12.5269c0-6.2156 4.0506-7.5646 8.4411-7.4335 1.802.0538 4.3906 1.4257 4.3906 1.4257s2.5886-1.3719 4.3906-1.4257c4.3905-.1311 8.4411 1.1701 8.4411 7.4335z" fill="#fff"/><path d="m62.1373 39.2438c1.3366-.5168 4.2558-2.545 5.2396-6.5228"/><path d="m58.6725 24.0349c-2.6365.0249-5.0478-1.7633-5.6845-6.8642 2.5119.9791 6.603.5203 5.6845 6.8642z" fill="#fff"/><path d="m58.7155 23.9529c1.1762-1.4703 2.9406-6.0149 1.4168-9.3297"/><path d="m51.2845 32.1698c-.5489-1.0286-.7038-2.7255-.1434-4.03"/></g><path d="m22.0248 50.1057c0-3.3137 2.6863-6 6-6h71.5284s-5.539 3.5752-6.1157 10.3317 6.1157 10.2847 6.1157 10.2847h-71.5284c-3.3137 0-6-2.6863-6-6z" fill="#fff"/><path clip-rule="evenodd" d="m100.642 45.7835c-.001.0006-.002.0012-.003.0018l-.019.0132c-.026.0174-.07.048-.13.0916-.12.0873-.303.2262-.5301.4155-.4556.3802-1.0774.9555-1.7154 1.7169-1.2805 1.5279-2.571 3.7347-2.8142 6.585-.2241 2.6252.9434 4.6665 2.3153 6.1461.6835.7371 1.3889 1.2999 1.924 1.6775.2656.1874.4844.3256.6304.4135.072.0439.126.0749.159.093.016.0091.026.0149.031.0175l-.002-.0008-.001-.0007c.002.0009.004.0017.005.0026.809.4303 1.223 1.356 1.003 2.2463-.221.8926-1.022 1.5196-1.9418 1.5196h-71.5284c-4.4183 0-8-3.5817-8-8v-8.6164c0-4.4183 3.5817-8 8-8h71.5284c.8868 0 1.6678.584 1.9188 1.4347.25.8482-.087 1.7595-.828 2.2415-.001.0006-.001.0011-.002.0016zm-3.7617 16.9386c1.3925 1.325 2.6729 2 2.6729 2h-71.5284c-3.3137 0-6-2.6863-6-6v-8.6164c0-3.3137 2.6863-6 6-6h71.5284s-1.0497.6775-2.2827 2c-1.5994 1.7155-3.5074 4.5164-3.833 8.3317-.3244 3.8011 1.6519 6.5805 3.4428 8.2847z" fill="#000" fill-rule="evenodd"/><path d="m16.8921 96.7604c0-3.3138 2.6863-6 6-6h71.5284s-5.0236 3.1408-5.858 10.1766c-.8343 7.037 5.858 10.44 5.858 10.44h-71.5284c-3.3137 0-6-2.687-6-6z" fill="#fff"/><path clip-rule="evenodd" d="m95.4857 92.4531c-.0002.0001.0002-.0001 0 0-.0011.0007-.0022.0014-.0033.0021-.0001 0 0-.0001 0 0m-3.2949.3052c1.204-1.3567 2.233-2 2.233-2h-71.5284c-3.3137 0-6 2.6862-6 6v8.6166c0 3.313 2.6863 6 6 6h71.5284s-1.2981-.66-2.6797-2c-1.7552-1.703-3.6452-4.502-3.1783-8.44.4567-3.8513 2.1688-6.5357 3.625-8.1766zm3.141 16.8346c.002.001.0039.002.0059.003.0009 0 .0007 0 0 0 .8197.421 1.2459 1.348 1.031 2.245-.2156.899-1.0199 1.534-1.9449 1.534h-71.5284c-4.4183 0-8-3.582-8-8v-8.6166c0-4.4183 3.5817-8 8-8h71.5284c.8921 0 1.6764.5909 1.9224 1.4484.245.8538-.1025 1.7662-.852 2.241-.0016.001-.0037.0023-.0052.0033m-.1526 17.1439c-.004-.002-.0139-.007-.0293-.016-.0309-.017-.0834-.046-.1544-.088-.1422-.083-.3564-.216-.6165-.398-.5241-.366-1.2126-.915-1.8726-1.643-1.3115-1.446-2.4407-3.505-2.1117-6.279.3636-3.0665 1.6333-5.2639 2.8045-6.6973.5877-.7192 1.1486-1.243 1.5518-1.5799.201-.1679.3611-.288.4632-.3612.051-.0365.0874-.0613.1069-.0743l.0107-.0072-.0021.0013-.0012.0008m-.1493 17.1418h-.0011l-.0022-.002" fill="#000" fill-rule="evenodd"/><path d="m35.1372 72.6205h46.6219" stroke="#fff" stroke-linecap="round" stroke-linejoin="round" stroke-width="2"/><path d="m35.1372 77.7414h25.4496" stroke="#fff" stroke-linecap="round" stroke-linejoin="round" stroke-width="2"/><path d="m76.9472 43.4194h8.2868v12.2604c0 .8909-1.0771 1.3371-1.7071.7071l-1.7292-1.7292c-.3905-.3905-1.0237-.3905-1.4142 0l-1.7292 1.7292c-.63.63-1.7071.1838-1.7071-.7071z" fill="#000"/><path d="m21.45 95.9477h46.6219" stroke="#000" stroke-linecap="round" stroke-linejoin="round" stroke-width="2"/><path d="m21.45 101.069h25.4496" stroke="#000" stroke-linecap="round" stroke-linejoin="round" stroke-width="2"/><path d="m27.4382 49.4527h39.1367" stroke="#000" stroke-linecap="round" stroke-linejoin="round" stroke-width="2"/></svg>