<svg fill="none" height="128" viewBox="0 0 128 128" width="128" xmlns="http://www.w3.org/2000/svg"><rect fill="#82cfff" height="122" rx="9" stroke="#003a6d" stroke-width="6" width="122" x="3" y="3"/><path d="m32.2825 30.5681c1.2093-4.5783 5.9474-7.3214 10.5832-6.1278 4.6357 1.1937 7.4134 5.8736 6.2047 10.4519-1.1584 4.3869-5.5767 7.1226-10.0794 6.2419-4.6994-.9195-7.7547-5.4269-6.8241-10.0686.0335-.1667.0722-.3329.1156-.4974zm63.6146 63.7961c.5968 3.099-1.4637 6.0888-4.6011 6.6778-.0086.002-.0167.003-.0254.005-2.459.491-4.9585-.64-6.188-2.7991l-9.7157-19.2473-8.3855 1.6563-1.2723.4569h-.347v12.2795l3.5856-.8568h.8096c1.6603.0309 2.9812 1.3851 2.95 3.0254-.0226 1.1788-.7489 2.2331-1.8512 2.686l-28.9157 5.7111c-.3256.055-.6576.055-.9832 0-1.6609 0-3.0072-1.329-3.0072-2.97 0-1.1984.7298-2.2802 1.8506-2.7411l24.0001-4.7404v-12.3937l-18.6218 3.3126c-.9484.2416-1.9431.2416-2.8915 0-1.9628-.4952-3.5208-1.9682-4.1061-3.8837h-.1156l-5.7832-23.2454c-.1804-.8087-.1804-1.6471 0-2.4559.5413-2.2103 2.3584-3.8923 4.6265-4.2835l27.1808-2.9699v-23.588h1.2723v23.4167h.347l1.2723-.1143 2.3132-.4569h1.2145c1.5458.3673 2.5018 1.8979 2.1398 3.4268-.2539 1.3422-1.4516 2.308-2.8338 2.2846l-2.8337.4569h-1.2723-.347v16.3345h.347l1.2723-.3426 10.4675-2.0561c2.4723-.2011 4.7994 1.1777 5.7831 3.4268l11.5663 22.5028c.4453.433.816.9344 1.0988 1.485zm-31.8073-41.0648-14.4578 1.542 4.2795 16.7915 10.1783-1.9419z" fill="#000"/></svg>