<svg width="128" height="128" version="1.1" viewBox="0 0 128 128" xmlns="http://www.w3.org/2000/svg"><rect x="3" y="3" width="122" height="122" rx="9" fill="#9ef0f0" stroke="#009d9a" stroke-width="6"/><path d="m53.417 35.25c0-6.2133 5.0368-11.25 11.25-11.25 6.2133 0 11.25 5.0367 11.25 11.25 0 6.2131-5.0367 11.25-11.25 11.25-6.2132 0-11.25-5.0369-11.25-11.25zm39.786 0.2145c-1.9525-1.9526-5.1184-1.9526-7.0709 0l-13.536 13.536h-15.858l-13.536-13.536c-1.9525-1.9526-5.1184-1.9526-7.0709 0-1.9527 1.9527-1.9527 5.1185 0 7.0711l14.785 14.785v41.679c0 2.761 2.2386 5 5 5h2.5c2.7615 0 5-2.239 5-5v-17.5h2.5v17.5c0 2.761 2.2386 5 5 5h2.5c2.7615 0 5-2.239 5-5v-41.679l14.786-14.785c1.9527-1.9527 1.9527-5.1183 0-7.071z"/></svg>
