<svg fill="none" height="128" viewBox="0 0 128 128" width="128" xmlns="http://www.w3.org/2000/svg"><rect fill="#fff" height="128" rx="10" width="128"/><path d="m0 0h128v128h-128z" fill="#fef9c3"/><path d="m10.6667 10.6667v106.6663h106.6663v-106.6663z" stroke="#e8e800" stroke-linecap="round" stroke-linejoin="round" stroke-width="5"/><g fill="#fff" stroke="#343a3f"><path d="m10.6667 17.3333c3.6819 0 6.6666-2.9847 6.6666-6.6666 0-3.68193-2.9847-6.6667-6.6666-6.6667-3.68193 0-6.6667 2.98477-6.6667 6.6667 0 3.6819 2.98477 6.6666 6.6667 6.6666z"/><path d="m10.6667 124c3.6819 0 6.6666-2.985 6.6666-6.667s-2.9847-6.666-6.6666-6.666c-3.68193 0-6.6667 2.984-6.6667 6.666s2.98477 6.667 6.6667 6.667z"/><path d="m117.333 124c3.682 0 6.667-2.985 6.667-6.667s-2.985-6.666-6.667-6.666-6.666 2.984-6.666 6.666 2.984 6.667 6.666 6.667z"/><path d="m117.333 17.3333c3.682 0 6.667-2.9847 6.667-6.6666 0-3.68193-2.985-6.6667-6.667-6.6667s-6.666 2.98477-6.666 6.6667c0 3.6819 2.984 6.6666 6.666 6.6666z"/></g><path d="m11 69c2.7614 0 5-2.2386 5-5s-2.2386-5-5-5c-2.76142 0-5 2.2386-5 5s2.23858 5 5 5z" fill="#343a3f"/><path d="m117 69c2.761 0 5-2.2386 5-5s-2.239-5-5-5-5 2.2386-5 5 2.239 5 5 5z" fill="#343a3f"/><path d="m64 16c2.7614 0 5-2.2386 5-5 0-2.76142-2.2386-5-5-5s-5 2.23858-5 5c0 2.7614 2.2386 5 5 5z" fill="#343a3f"/><path d="m64 122c2.7614 0 5-2.239 5-5s-2.2386-5-5-5-5 2.239-5 5 2.2386 5 5 5z" fill="#343a3f"/><path d="m34 34h60v60h-60z" fill="#fef9c3"/><path d="m56.0625 42.4375c0-4.66 3.7775-8.4375 8.4375-8.4375 4.6599 0 8.4375 3.7775 8.4375 8.4375 0 4.6598-3.7776 8.4375-8.4375 8.4375-4.66 0-8.4375-3.7777-8.4375-8.4375zm29.8391.1609c-1.4644-1.4645-3.8389-1.4645-5.3032 0l-10.1517 10.1516h-11.8935l-10.1516-10.1516c-1.4644-1.4645-3.8389-1.4645-5.3032 0-1.4645 1.4645-1.4645 3.8388 0 5.3033l11.0891 11.089v31.2593c0 2.0711 1.6789 3.75 3.75 3.75h1.875c2.071 0 3.75-1.6789 3.75-3.75v-13.125h1.875v13.125c0 2.0711 1.6789 3.75 3.75 3.75h1.875c2.071 0 3.75-1.6789 3.75-3.75v-31.2593l11.0891-11.0891c1.4645-1.4645 1.4645-3.8387 0-5.3032z" fill="#000"/></svg>