<svg fill="none" height="128" viewBox="0 0 128 128" width="128" xmlns="http://www.w3.org/2000/svg"><rect fill="#eab308" height="128" rx="10" width="128"/><g clip-rule="evenodd" fill-rule="evenodd"><path d="m64.0312 88.4152c1.1045 0 2 .8954 2 2v17.4488c0 1.105-.8955 2-2 2-1.1046 0-2-.895-2-2v-17.4488c0-1.1046.8954-2 2-2z" fill="#000"/><path d="m65.2711 16.1606c.135 1.0963-.6443 2.0944-1.7406 2.2294-2.9715.3659-5.9466 1.1233-8.8587 2.3021-17.8811 7.2381-26.5089 27.6012-19.2708 45.4823s27.6012 26.5089 45.4823 19.2708c3.193-1.2926 6.0881-3.0018 8.6499-5.0385.8646-.6875 2.1227-.5438 2.8101.3208.6875.8646.5438 2.1227-.3208 2.8102-2.8587 2.2728-6.0862 4.1773-9.6384 5.6152-19.9288 8.067-42.6239-1.5488-50.6909-21.4777-8.067-19.9288 1.5489-42.6238 21.4777-50.6909 3.2395-1.3113 6.555-2.156 9.8707-2.5643 1.0963-.135 2.0945.6443 2.2295 1.7406z" fill="#000"/><path d="m50.9752 15.3624c.9854-.4991 2.1888-.1049 2.6879.8804l35.7503 70.5781c.4991.9854.1049 2.1888-.8804 2.6879-.9854.4992-2.1888.105-2.6879-.8804l-35.7503-70.5781c-.4991-.9853-.1049-2.1888.8804-2.6879z" fill="#000"/></g><path d="m97.1608 53.8614c0 16.3018-13.2153 29.5171-29.5171 29.5171-16.3019 0-29.5172-13.2153-29.5172-29.5171 0-16.3019 13.2153-29.5171 29.5172-29.5171 16.3018 0 29.5171 13.2152 29.5171 29.5171z" fill="#fff"/><path clip-rule="evenodd" d="m99.1608 53.8614c0 17.4064-14.1107 31.5171-31.5171 31.5171-17.4065 0-31.5172-14.1107-31.5172-31.5171s14.1107-31.5171 31.5172-31.5171c17.4064 0 31.5171 14.1107 31.5171 31.5171zm-31.5171 29.5171c16.3018 0 29.5171-13.2153 29.5171-29.5171 0-16.3019-13.2153-29.5171-29.5171-29.5171-16.3019 0-29.5172 13.2152-29.5172 29.5171 0 16.3018 13.2153 29.5171 29.5172 29.5171z" fill="#000" fill-rule="evenodd"/><path clip-rule="evenodd" d="m58.2849 35.943c.2893-.3279.758-.4298 1.1573-.2517l8.3088 3.7071c.0134.0059.0267.0122.0398.0188l4.3461 2.173c.4354.2177.6508.7172.5102 1.1832l-2.4287 8.0531c-.1274.4223-.5163.7113-.9574.7113h-4.4373l.3526 2.045 4.541 2.3287c.2744.1408.4686.4003.5261.7033.0576.303-.0279.6156-.2317.8472l-5.3751 6.1081v3.5853c0 .2911-.1269.5678-.3475.7578l-4.6018 3.9626c-.3507.302-.8628.3239-1.238.053l-4.5702-3.3007-5.2077-3.1754c-.2126-.1297-.3692-.334-.4391-.5729l-1.5339-5.241c-.069-.2355-.0489-.4882.0564-.7099l2.2364-4.7082-2.2544-5.3392c-.1157-.2741-.1033-.5856.0338-.8498l3.4513-6.647c.0212-.0407.045-.0798.0715-.1172l2.1731-3.0679c.1875-.2646.4917-.422.816-.422h3.3836zm1.0135 1.8742-1.4312 1.6221c-.1898.2151-.4629.3383-.7499.3383h-3.3177l-1.8344 2.5898-3.2031 6.169 2.246 5.3194c.1109.2628.1044.5604-.018.8181l-2.2652 4.7689 1.3182 4.5037 4.9105 2.9943c.0222.0135.0438.0279.0649.0431l3.9619 2.8614 3.6562-3.1484v-3.5041c0-.2432.0886-.4781.2492-.6607l4.7759-5.4271-3.8423-1.9704c-.2798-.1434-.4757-.4101-.5292-.7199l-.6391-3.707c-.0501-.2906.0306-.5886.2206-.8141.19-.2256.4699-.3558.7649-.3558h4.8815l1.971-6.5354-3.5731-1.7866z" fill="#000" fill-rule="evenodd"/><path clip-rule="evenodd" d="m90.4401 47.7711c.3066.1794.4951.508.4951.8633v7.0718c0 .1434-.0309.2852-.0905.4157l-2.3693 5.1827v5.0093c0 .3787-.214.725-.5527.8944l-7.0718 3.5359c-.2797.1398-.6086.1408-.889.0027-.2805-.1381-.4802-.3994-.5399-.7063l-1.0761-5.5344c-.0364-.1869-.0186-.3803.0512-.5574l1.8919-4.8025-.8671-4.48c-.0449-.232-.0062-.4724.1092-.6786l2.1523-3.8434c.1553-.2773.4331-.4643.7485-.5037l4.7245-.5905 2.2885-1.2873c.3097-.1742.6885-.171.9952.0083zm-1.5049 2.5731-.9695.5453c-.1131.0637-.2375.1047-.3662.1207l-4.418.5523-1.7265 3.0831.8528 4.4064c.0361.1867.0183.3797-.0513.5566l-1.8918 4.802.7693 3.956 5.3414-2.6708v-4.6089c0-.1435.0309-.2853.0906-.4158l2.3692-5.1827z" fill="#000" fill-rule="evenodd"/><path d="m63.7411 101.7c-9.4265 0-17.0682 3.795-17.0682 8.476h34.1364c0-4.681-7.6417-8.476-17.0682-8.476z" fill="#fff"/><path clip-rule="evenodd" d="m46.6729 112.176c-1.1045 0-2-.895-2-2 0-3.513 2.8134-6.148 6.1096-7.785 3.4198-1.698 8.0041-2.6908 12.9586-2.6908s9.5388.9928 12.9586 2.6908c3.2962 1.637 6.1096 4.272 6.1096 7.785 0 1.105-.8955 2-2 2zm33.6585-4c-1.8101-3.716-8.5512-6.476-16.5903-6.476s-14.7802 2.76-16.5903 6.476c-.3123.641-.4779 1.311-.4779 2h34.1364c0-.689-.1656-1.359-.4779-2z" fill="#000" fill-rule="evenodd"/><path d="m41.9703 112.134c0-.529.4288-.958.9579-.958h42.2059c.5291 0 .9579.429.9579.958s-.4288.958-.9579.958h-42.2059c-.5291 0-.9579-.429-.9579-.958z" fill="#000"/><path clip-rule="evenodd" d="m85.1341 113.092c.5291 0 .9579-.429.9579-.958s-.4288-.958-.9579-.958h-42.2059c-.5291 0-.9579.429-.9579.958s.4288.958.9579.958zm-42.2059-3.916h42.2059c1.6337 0 2.9579 1.325 2.9579 2.958 0 1.634-1.3242 2.958-2.9579 2.958h-42.2059c-1.6336 0-2.9579-1.324-2.9579-2.958 0-1.633 1.3243-2.958 2.9579-2.958z" fill="#000" fill-rule="evenodd"/></svg>