<svg width="128" height="128" viewBox="0 0 128 128" fill="none" xmlns="http://www.w3.org/2000/svg">
<rect width="128" height="128" rx="10" fill="#0EA5E9"/>
<path d="M66.5679 35.6978L104.951 30.1226C108.239 29.645 111.212 32.1322 111.322 35.453L113.415 98.4639C113.515 101.485 111.188 104.036 108.17 104.213L67.6946 106.581C64.494 106.768 61.7958 104.223 61.7958 101.017V41.2131C61.7958 38.4446 63.8281 36.0958 66.5679 35.6978Z" fill="black"/>
<path d="M61.4321 35.6978L23.0492 30.1226C19.7612 29.645 16.7883 32.1322 16.678 35.453L14.5854 98.4639C14.485 101.485 16.8119 104.036 19.83 104.213L60.3054 106.581C63.506 106.768 66.2042 104.223 66.2042 101.017V41.2131C66.2042 38.4446 64.1719 36.0958 61.4321 35.6978Z" fill="black"/>
<path d="M65.6869 33.7266L103.352 27.3777C104.464 27.1903 105.485 28.0287 105.518 29.1558L107.482 96.9942C107.511 97.9923 106.745 98.8347 105.749 98.9015L66.1199 101.558C65.0474 101.63 64.1379 100.779 64.1379 99.7046V35.5585C64.1379 34.6516 64.7926 33.8773 65.6869 33.7266Z" fill="white"/>
<path fill-rule="evenodd" clip-rule="evenodd" d="M103.043 25.5458L65.3781 31.8946C63.5896 32.1961 62.2802 33.7448 62.2802 35.5584V99.7046C62.2802 101.854 64.0992 103.556 66.2442 103.412L105.873 100.755C107.866 100.622 109.397 98.9367 109.339 96.9404L107.375 29.1021C107.31 26.8477 105.267 25.1709 103.043 25.5458ZM103.352 27.3777L65.6869 33.7265C64.7926 33.8773 64.1379 34.6516 64.1379 35.5584V99.7046C64.1379 100.779 65.0474 101.63 66.1199 101.558L105.749 98.9015C106.745 98.8347 107.511 97.9923 107.482 96.9942L105.518 29.1558C105.485 28.0286 104.464 27.1902 103.352 27.3777Z" fill="black"/>
<path d="M66.3645 33.5773L98.7019 23.3559C99.8779 22.9842 101.083 23.8406 101.119 25.0735L103.079 92.7937C103.106 93.7043 102.468 94.4997 101.573 94.6717L67.2752 101.266C66.1295 101.487 65.0667 100.609 65.0667 99.442V35.3487C65.0667 34.5384 65.5919 33.8215 66.3645 33.5773Z" fill="white"/>
<path fill-rule="evenodd" clip-rule="evenodd" d="M98.1419 21.5845L65.8046 31.8059C64.2594 32.2944 63.2089 33.728 63.2089 35.3486V99.4419C63.2089 101.775 65.3346 103.531 67.626 103.091L101.924 96.496C103.713 96.152 104.989 94.5612 104.936 92.7399L102.976 25.0197C102.904 22.554 100.494 20.8411 98.1419 21.5845ZM98.7019 23.3559L66.3645 33.5773C65.5919 33.8215 65.0667 34.5383 65.0667 35.3486V99.4419C65.0667 100.609 66.1295 101.487 67.2752 101.266L101.573 94.6717C102.468 94.4997 103.106 93.7043 103.079 92.7936L101.119 25.0735C101.083 23.8406 99.8779 22.9842 98.7019 23.3559Z" fill="black"/>
<path d="M73.5496 29.9763L79.2528 28.1146V43.3822L76.4012 41.6327L73.5496 44.4843V29.9763Z" fill="black"/>
<path fill-rule="evenodd" clip-rule="evenodd" d="M71.6918 29.9763C71.6918 29.1724 72.2089 28.4597 72.9731 28.2103L78.6764 26.3486C79.2421 26.1639 79.8621 26.2615 80.3438 26.611C80.8255 26.9604 81.1106 27.5195 81.1106 28.1146V43.3822C81.1106 44.0548 80.7471 44.6748 80.1602 45.0033C79.5732 45.3318 78.8546 45.3174 78.2814 44.9657L76.6787 43.9824L74.8632 45.7979C74.3319 46.3292 73.5328 46.4882 72.8386 46.2006C72.1445 45.9131 71.6918 45.2357 71.6918 44.4843V29.9763ZM79.2528 43.3822L76.4012 41.6327L73.5496 44.4843V29.9763L79.2528 28.1146V43.3822Z" fill="black"/>
<path d="M61.4882 33.7252L24.0857 27.3803C22.973 27.1915 21.9505 28.0304 21.918 29.1585L19.9666 96.9952C19.9379 97.9929 20.7027 98.835 21.6985 98.9022L61.0525 101.557C62.1253 101.63 63.0353 100.779 63.0353 99.7037V35.5568C63.0353 34.6506 62.3816 33.8767 61.4882 33.7252Z" fill="white"/>
<path fill-rule="evenodd" clip-rule="evenodd" d="M24.3964 25.5487L61.799 31.8936C63.5856 32.1967 64.893 33.7445 64.893 35.5567V99.7037C64.893 101.854 63.073 103.555 60.9274 103.411L21.5735 100.756C19.5818 100.621 18.0522 98.9372 18.1096 96.9418L20.0611 29.105C20.126 26.8488 22.1711 25.1712 24.3964 25.5487ZM24.0857 27.3803L61.4883 33.7252C62.3816 33.8767 63.0353 34.6506 63.0353 35.5567V99.7037C63.0353 100.779 62.1253 101.63 61.0525 101.557L21.6985 98.9021C20.7027 98.835 19.9379 97.9929 19.9666 96.9952L21.918 29.1584C21.9505 28.0303 22.9731 27.1915 24.0857 27.3803Z" fill="black"/>
<path fill-rule="evenodd" clip-rule="evenodd" d="M99.1515 47.5092C99.0531 47.0057 98.5652 46.6773 98.0617 46.7756L68.4425 52.5617C67.939 52.6601 67.6106 53.148 67.709 53.6514C67.8073 54.1549 68.2952 54.4833 68.7987 54.385L98.4179 48.5989C98.9214 48.5006 99.2498 48.0127 99.1515 47.5092Z" fill="black"/>
<path fill-rule="evenodd" clip-rule="evenodd" d="M99.1515 51.7799C99.0531 51.2764 98.5652 50.948 98.0617 51.0464L68.4425 56.8325C67.939 56.9308 67.6106 57.4187 67.709 57.9222C67.8073 58.4257 68.2952 58.7541 68.7987 58.6557L98.4179 52.8697C98.9214 52.7713 99.2498 52.2834 99.1515 51.7799Z" fill="black"/>
<path fill-rule="evenodd" clip-rule="evenodd" d="M99.1515 68.9317C99.0531 68.4282 98.5652 68.0998 98.0617 68.1981L68.4425 73.9842C67.939 74.0826 67.6106 74.5704 67.709 75.0739C67.8073 75.5774 68.2952 75.9058 68.7987 75.8075L98.4179 70.0214C98.9214 69.923 99.2498 69.4352 99.1515 68.9317Z" fill="black"/>
<path fill-rule="evenodd" clip-rule="evenodd" d="M99.1515 56.1885C99.0531 55.685 98.5652 55.3566 98.0617 55.455L68.4425 61.241C67.939 61.3394 67.6106 61.8273 67.709 62.3308C67.8073 62.8342 68.2952 63.1627 68.7987 63.0643L98.4179 57.2782C98.9214 57.1799 99.2498 56.692 99.1515 56.1885Z" fill="black"/>
<path fill-rule="evenodd" clip-rule="evenodd" d="M99.1515 73.3402C99.0531 72.8368 98.5652 72.5083 98.0617 72.6067L68.4425 78.3928C67.939 78.4911 67.6106 78.979 67.709 79.4825C67.8073 79.986 68.2952 80.3144 68.7987 80.216L98.4179 74.43C98.9214 74.3316 99.2498 73.8437 99.1515 73.3402Z" fill="black"/>
<path fill-rule="evenodd" clip-rule="evenodd" d="M99.1515 60.7693C99.0531 60.2658 98.5652 59.9374 98.0617 60.0358L68.4425 65.8218C67.939 65.9202 67.6106 66.4081 67.709 66.9116C67.8073 67.4151 68.2952 67.7435 68.7987 67.6451L98.4179 61.859C98.9214 61.7607 99.2498 61.2728 99.1515 60.7693Z" fill="black"/>
<path fill-rule="evenodd" clip-rule="evenodd" d="M99.1515 77.9212C99.0531 77.4177 98.5652 77.0893 98.0617 77.1876L68.4425 82.9737C67.939 83.0721 67.6106 83.5599 67.709 84.0634C67.8073 84.5669 68.2952 84.8953 68.7987 84.797L98.4179 79.0109C98.9214 78.9125 99.2498 78.4247 99.1515 77.9212Z" fill="black"/>
<path fill-rule="evenodd" clip-rule="evenodd" d="M85.7229 85.3458C85.6357 84.8402 85.1553 84.501 84.6497 84.5882L68.4625 87.3781C67.9569 87.4653 67.6177 87.9457 67.7049 88.4513C67.792 88.9568 68.2725 89.296 68.778 89.2089L84.9653 86.4189C85.4708 86.3318 85.81 85.8513 85.7229 85.3458Z" fill="black"/>
<path fill-rule="evenodd" clip-rule="evenodd" d="M26.0854 67.4576C26.1322 66.9467 26.5844 66.5706 27.0952 66.6174L57.1277 69.3727C57.6386 69.4196 58.0147 69.8717 57.9678 70.3826C57.921 70.8934 57.4689 71.2696 56.958 71.2227L26.9255 68.4674C26.4146 68.4205 26.0385 67.9684 26.0854 67.4576Z" fill="black"/>
<path fill-rule="evenodd" clip-rule="evenodd" d="M26.0854 79.853C26.1322 79.3421 26.5844 78.966 27.0952 79.0128L57.1277 81.7681C57.6386 81.815 58.0147 82.2671 57.9678 82.7779C57.921 83.2888 57.4689 83.6649 56.958 83.6181L26.9255 80.8628C26.4146 80.8159 26.0385 80.3638 26.0854 79.853Z" fill="black"/>
<path fill-rule="evenodd" clip-rule="evenodd" d="M26.0836 71.881C26.118 71.3691 26.5608 70.9821 27.0727 71.0165L43.4666 72.1186C43.9784 72.153 44.3654 72.5958 44.331 73.1077C44.2966 73.6195 43.8538 74.0066 43.3419 73.9722L26.9481 72.8701C26.4362 72.8356 26.0492 72.3928 26.0836 71.881Z" fill="black"/>
<path fill-rule="evenodd" clip-rule="evenodd" d="M26.0837 84.2739C26.1196 83.7622 26.5635 83.3764 27.0752 83.4122L50.6027 85.0592C51.1144 85.095 51.5003 85.5389 51.4644 86.0506C51.4286 86.5624 50.9847 86.9482 50.473 86.9124L26.9455 85.2654C26.4337 85.2296 26.0479 84.7857 26.0837 84.2739Z" fill="black"/>
<path fill-rule="evenodd" clip-rule="evenodd" d="M26.0836 88.2312C26.118 87.7193 26.5608 87.3323 27.0727 87.3667L43.4666 88.4688C43.9784 88.5032 44.3654 88.9461 44.331 89.4579C44.2966 89.9698 43.8538 90.3568 43.3419 90.3224L26.9481 89.2203C26.4362 89.1859 26.0492 88.743 26.0836 88.2312Z" fill="black"/>
<path d="M52.5858 63C52.4056 63 52.2604 62.9391 52.1502 62.8172C52.0501 62.6831 52 62.5064 52 62.287V53.6947C52.01 53.4875 52.0651 53.323 52.1652 53.2011C52.2754 53.067 52.4156 53 52.5858 53H52.6009H56.2661C56.9571 53 57.5229 53.2438 57.9635 53.7313C58.4142 54.2188 58.6395 54.8464 58.6395 55.6143C58.6395 56.1383 58.5393 56.5771 58.3391 56.9305C58.1388 57.2718 57.8734 57.5277 57.5429 57.6984C57.9936 57.9055 58.3491 58.2285 58.6094 58.6673C58.8698 59.0938 59 59.5874 59 60.1481C59 60.7087 58.8848 61.2023 58.6545 61.6289C58.4342 62.0555 58.1187 62.3906 57.7082 62.6344C57.3076 62.8781 56.8469 63 56.3262 63H52.5858ZM56.2661 54.2797H53.1567V57.1865H56.3262C56.6767 57.1865 56.9621 57.0463 57.1824 56.766C57.4027 56.4857 57.5129 56.1261 57.5129 55.6874C57.5129 55.2974 57.3927 54.9683 57.1524 54.7002C56.922 54.4199 56.6266 54.2797 56.2661 54.2797ZM53.1567 61.702H56.3262C56.7768 61.702 57.1474 61.5619 57.4378 61.2815C57.7282 61.0012 57.8734 60.599 57.8734 60.075C57.8734 59.5265 57.7282 59.1121 57.4378 58.8318C57.1474 58.5393 56.7768 58.3931 56.3262 58.3931H53.1567V61.702Z" fill="black"/>
<path fill-rule="evenodd" clip-rule="evenodd" d="M51.9956 62.9444L51.99 62.9369C51.857 62.7589 51.8 62.5361 51.8 62.287V53.685C51.8114 53.4484 51.8758 53.2383 52.0107 53.0741C52.158 52.8949 52.3544 52.8 52.5858 52.8H56.2661C57.01 52.8 57.6305 53.065 58.1111 53.5963C58.6008 54.1264 58.8395 54.805 58.8395 55.6143C58.8395 56.1631 58.7346 56.6381 58.5131 57.0291L58.5116 57.0318C58.3574 57.2945 58.166 57.5132 57.9377 57.6856C58.2815 57.9036 58.5629 58.1973 58.7808 58.5642C59.0622 59.0256 59.2 59.5557 59.2 60.1481C59.2 60.736 59.0792 61.2626 58.8314 61.7223C58.5942 62.1809 58.2532 62.5432 57.8112 62.8058C57.3761 63.0703 56.879 63.2 56.3262 63.2H52.5858C52.3552 63.2 52.1539 63.1195 52.0018 62.9513L51.9956 62.9444ZM57.7082 62.6344C58.1187 62.3906 58.4342 62.0555 58.6545 61.6289C58.8848 61.2023 59 60.7087 59 60.1481C59 59.5874 58.8698 59.0938 58.6094 58.6673C58.3914 58.2999 58.1068 58.0137 57.7554 57.8087C57.6871 57.7689 57.6163 57.7321 57.5429 57.6984C57.6142 57.6616 57.6824 57.6208 57.7477 57.5761C57.9848 57.4134 58.182 57.1982 58.3391 56.9305C58.5393 56.5771 58.6395 56.1383 58.6395 55.6143C58.6395 54.8464 58.4142 54.2188 57.9635 53.7313C57.5229 53.2438 56.9571 53 56.2661 53H52.5858C52.4156 53 52.2754 53.067 52.1652 53.2011C52.0651 53.323 52.01 53.4875 52 53.6947V62.287C52 62.5064 52.0501 62.6831 52.1502 62.8172C52.2604 62.9391 52.4056 63 52.5858 63H56.3262C56.8469 63 57.3076 62.8781 57.7082 62.6344ZM56.9978 54.8272C56.8052 54.5927 56.5663 54.4797 56.2661 54.4797H53.3567V56.9865H56.3262C56.6141 56.9865 56.842 56.8755 57.0252 56.6424C57.2119 56.4049 57.3129 56.0919 57.3129 55.6874C57.3129 55.3422 57.208 55.0619 57.0034 54.8337L56.9978 54.8272ZM53.1567 57.1865V54.2797H56.2661C56.6266 54.2797 56.922 54.4199 57.1524 54.7002C57.3927 54.9683 57.5129 55.2974 57.5129 55.6874C57.5129 56.1261 57.4027 56.4857 57.1824 56.766C56.9621 57.0463 56.6767 57.1865 56.3262 57.1865H53.1567ZM57.2958 58.9727C57.0467 58.7218 56.729 58.5931 56.3262 58.5931H53.3567V61.502H56.3262C56.7316 61.502 57.0502 61.3777 57.2989 61.1376C57.5395 60.9054 57.6734 60.5617 57.6734 60.075C57.6734 59.5607 57.5378 59.2064 57.2989 58.9757L57.2958 58.9727ZM53.1567 61.702V58.3931H56.3262C56.7768 58.3931 57.1474 58.5393 57.4378 58.8318C57.7282 59.1121 57.8734 59.5265 57.8734 60.075C57.8734 60.599 57.7282 61.0012 57.4378 61.2815C57.1474 61.5619 56.7768 61.702 56.3262 61.702H53.1567Z" fill="black"/>
<path d="M40 56.5885V56.5496V56.5301V54.9923C40.0124 53.2663 40.454 51.722 41.3246 50.3594C42.1953 48.9838 43.551 47.9262 45.3918 47.1865L48.1343 46.0574C48.5697 45.9147 48.8557 46.038 48.9925 46.4273C49.0547 46.6349 49.0547 46.8166 48.9925 46.9723C48.9428 47.1281 48.7998 47.2514 48.5634 47.3422L45.653 48.588C44.1356 49.2109 43.0286 50.0415 42.3321 51.0796C41.6356 52.1178 41.2376 53.2663 41.1381 54.5251C41.4739 53.6946 41.9963 53.0392 42.7052 52.5591C43.4142 52.0659 44.2413 51.8193 45.1866 51.8193C46.1194 51.8193 46.9465 52.0335 47.6679 52.4617C48.4017 52.89 48.9739 53.4869 49.3843 54.2526C49.7948 55.0182 50 55.8942 50 56.8805C50 57.8797 49.7886 58.7687 49.3657 59.5473C48.9428 60.313 48.3582 60.9164 47.6119 61.3576C46.8657 61.7859 46.0075 62 45.0373 62C44.0547 62 43.1841 61.7664 42.4254 61.2992C41.6667 60.832 41.0697 60.1962 40.6343 59.3916C40.2114 58.574 40 57.6396 40 56.5885ZM45.0373 60.6374C45.7338 60.6374 46.3495 60.4817 46.8843 60.1702C47.4192 59.8458 47.8358 59.4045 48.1343 58.8465C48.4453 58.2755 48.6007 57.6202 48.6007 56.8805C48.6007 56.1537 48.4453 55.5114 48.1343 54.9534C47.8358 54.3953 47.4192 53.9606 46.8843 53.6491C46.3495 53.3377 45.7338 53.182 45.0373 53.182C44.3284 53.182 43.7002 53.3377 43.153 53.6491C42.6057 53.9606 42.1766 54.3953 41.8657 54.9534C41.5672 55.5114 41.4179 56.1537 41.4179 56.8805C41.4179 57.6202 41.5672 58.2755 41.8657 58.8465C42.1766 59.4045 42.6057 59.8458 43.153 60.1702C43.7002 60.4817 44.3284 60.6374 45.0373 60.6374Z" fill="black"/>
<path fill-rule="evenodd" clip-rule="evenodd" d="M39.8 54.9908C39.8127 53.23 40.2637 51.6485 41.1559 50.2521C42.0534 48.8342 43.4459 47.753 45.3164 47.0012C45.3167 47.0011 45.3162 47.0013 45.3164 47.0012L48.065 45.8697L48.072 45.8674C48.3147 45.7878 48.5496 45.7709 48.7545 45.8592C48.9641 45.9495 49.1006 46.1316 49.1812 46.361L49.1843 46.3699C49.2549 46.6055 49.2614 46.8333 49.1808 47.0401C49.1029 47.2745 48.8961 47.4279 48.6388 47.5275L45.7289 48.773C44.2369 49.3855 43.1667 50.1947 42.4982 51.1911C42.0301 51.8887 41.7008 52.6371 41.5101 53.4372C41.8065 53.0302 42.1672 52.6821 42.592 52.3942C43.3375 51.876 44.205 51.6193 45.1866 51.6193C46.1509 51.6193 47.0139 51.841 47.7694 52.2894C48.5355 52.7366 49.1332 53.3609 49.5606 54.1581C49.9886 54.9565 50.2 55.8657 50.2 56.8805C50.2 57.9087 49.9822 58.8312 49.5414 59.6428L49.5408 59.644C49.1008 60.4406 48.491 61.0702 47.7137 61.5298L47.7115 61.5311C46.9312 61.9789 46.0379 62.2 45.0373 62.2C44.0216 62.2 43.1139 61.9581 42.3205 61.4695C41.5311 60.9835 40.91 60.3213 40.4584 59.4867L40.4567 59.4835C40.0171 58.6337 39.8 57.667 39.8 56.5885L39.8 54.9908ZM42.7052 52.559C42.1623 52.9267 41.7288 53.3972 41.4047 53.9703C41.3056 54.1456 41.2167 54.3306 41.1381 54.5251C41.1547 54.3148 41.1796 54.1077 41.2129 53.9036C41.3789 52.8857 41.7519 51.9444 42.3321 51.0796C43.0286 50.0415 44.1356 49.2109 45.653 48.588L48.5634 47.3422C48.7998 47.2514 48.9428 47.1281 48.9925 46.9723C49.0547 46.8166 49.0547 46.6349 48.9925 46.4273C48.8557 46.038 48.5697 45.9147 48.1343 46.0574L45.3918 47.1865C43.551 47.9262 42.1953 48.9838 41.3246 50.3594C40.454 51.722 40.0124 53.2663 40 54.9923V56.5885C40 57.6396 40.2114 58.574 40.6343 59.3916C41.0697 60.1962 41.6667 60.832 42.4254 61.2992C43.1841 61.7664 44.0547 62 45.0373 62C46.0075 62 46.8657 61.7859 47.6119 61.3576C48.3582 60.9164 48.9428 60.313 49.3657 59.5473C49.7886 58.7687 50 57.8797 50 56.8805C50 55.8942 49.7948 55.0182 49.3843 54.2526C48.9739 53.4869 48.4017 52.89 47.6679 52.4617C46.9465 52.0335 46.1194 51.8193 45.1866 51.8193C44.2413 51.8193 43.4142 52.0659 42.7052 52.559ZM47.958 55.0477C47.6765 54.5216 47.2857 54.1143 46.7837 53.822C46.2831 53.5305 45.703 53.382 45.0373 53.382C44.3586 53.382 43.7654 53.5307 43.2519 53.823C42.7374 54.1158 42.3346 54.5234 42.0412 55.0492C41.7609 55.5738 41.6179 56.1824 41.6179 56.8805C41.6179 57.5917 41.761 58.2136 42.0417 58.7515C42.3351 59.2771 42.7382 59.6915 43.2534 59.9973C43.7666 60.2889 44.3593 60.4374 45.0373 60.4374C45.7023 60.4374 46.2819 60.2892 46.7822 59.9983C47.2852 59.6927 47.6765 59.2785 47.958 58.7522L47.9587 58.7509C48.2516 58.2131 48.4007 57.5914 48.4007 56.8805C48.4007 56.1831 48.2518 55.5751 47.9596 55.0507L47.958 55.0477ZM46.8843 60.1702C46.3495 60.4817 45.7338 60.6374 45.0373 60.6374C44.3284 60.6374 43.7003 60.4817 43.153 60.1702C42.6057 59.8458 42.1766 59.4045 41.8657 58.8465C41.5672 58.2755 41.4179 57.6202 41.4179 56.8805C41.4179 56.1537 41.5672 55.5114 41.8657 54.9534C42.1766 54.3953 42.6057 53.9606 43.153 53.6491C43.7003 53.3377 44.3284 53.182 45.0373 53.182C45.7338 53.182 46.3495 53.3377 46.8843 53.6491C47.4192 53.9606 47.8358 54.3953 48.1343 54.9534C48.4453 55.5114 48.6007 56.1537 48.6007 56.8805C48.6007 57.6202 48.4453 58.2755 48.1343 58.8465C47.8358 59.4045 47.4192 59.8458 46.8843 60.1702Z" fill="black"/>
<path fill-rule="evenodd" clip-rule="evenodd" d="M32.1904 40.4224C32.5867 40.4414 32.9272 40.7099 33.038 41.0908L38.5485 60.0333C38.6918 60.5259 38.4087 61.0414 37.9161 61.1847C37.4235 61.328 36.908 61.0448 36.7647 60.5522L32.0097 44.2066L25.7766 59.8784C25.587 60.355 25.0469 60.5878 24.5702 60.3982C24.0935 60.2086 23.8608 59.6685 24.0504 59.1918L31.283 41.007C31.4296 40.6383 31.7941 40.4035 32.1904 40.4224Z" fill="black"/>
<path fill-rule="evenodd" clip-rule="evenodd" d="M36.2097 53.095C36.2097 53.608 35.7938 54.0239 35.2808 54.0239L27.5315 54.0239C27.0185 54.0239 26.6026 53.608 26.6026 53.095C26.6026 52.582 27.0185 52.1661 27.5315 52.1661L35.2808 52.1661C35.7938 52.1661 36.2097 52.582 36.2097 53.095Z" fill="black"/>
</svg>
