<svg fill="none" height="128" viewBox="0 0 128 128" width="128" xmlns="http://www.w3.org/2000/svg"><rect fill="#4589ff" height="128" rx="10" width="128"/><path d="m66.5679 35.6978 38.3831-5.5752c3.288-.4776 6.261 2.0096 6.371 5.3304l2.093 63.0109c.1 3.0211-2.227 5.5721-5.245 5.7491l-40.4754 2.368c-3.2006.187-5.8988-2.358-5.8988-5.564v-59.8039c0-2.7685 2.0323-5.1173 4.7721-5.5153z" fill="#000"/><path d="m61.4321 35.6978-38.3829-5.5752c-3.288-.4776-6.2609 2.0096-6.3712 5.3304l-2.0926 63.0109c-.1004 3.0211 2.2265 5.5721 5.2446 5.7491l40.4754 2.368c3.2006.187 5.8988-2.358 5.8988-5.564v-59.8039c0-2.7685-2.0323-5.1173-4.7721-5.5153z" fill="#000"/><path d="m65.6869 33.7266 37.6651-6.3489c1.112-.1874 2.133.651 2.166 1.7781l1.964 67.8384c.029.9981-.737 1.8405-1.733 1.9073l-39.6291 2.6565c-1.0725.072-1.982-.779-1.982-1.8534v-64.1461c0-.9069.6547-1.6812 1.549-1.8319z" fill="#fff"/><path clip-rule="evenodd" d="m103.043 25.5458-37.6649 6.3488c-1.7885.3015-3.0979 1.8502-3.0979 3.6638v64.1462c0 2.1494 1.819 3.8514 3.964 3.7074l39.6288-2.657c1.993-.133 3.524-1.8183 3.466-3.8146l-1.964-67.8383c-.065-2.2544-2.108-3.9312-4.332-3.5563zm.309 1.8319-37.6651 6.3488c-.8943.1508-1.549.9251-1.549 1.8319v64.1462c0 1.0744.9095 1.9254 1.982 1.8534l39.6291-2.6565c.996-.0668 1.762-.9092 1.733-1.9073l-1.964-67.8384c-.033-1.1272-1.054-1.9656-2.166-1.7781z" fill="#000" fill-rule="evenodd"/><path d="m66.3645 33.5773 32.3374-10.2214c1.176-.3717 2.3811.4847 2.4171 1.7176l1.96 67.7202c.027.9106-.611 1.706-1.506 1.878l-34.2978 6.5943c-1.1457.221-2.2085-.657-2.2085-1.824v-64.0933c0-.8103.5252-1.5272 1.2978-1.7714z" fill="#fff"/><path clip-rule="evenodd" d="m98.1419 21.5845-32.3373 10.2214c-1.5452.4885-2.5957 1.9221-2.5957 3.5427v64.0933c0 2.3331 2.1257 4.0891 4.4171 3.6491l34.298-6.595c1.789-.344 3.065-1.9348 3.012-3.7561l-1.96-67.7202c-.072-2.4657-2.482-4.1786-4.8341-3.4352zm.56 1.7714-32.3374 10.2214c-.7726.2442-1.2978.961-1.2978 1.7713v64.0933c0 1.1671 1.0628 2.0451 2.2085 1.8241l34.2978-6.5943c.895-.172 1.533-.9674 1.506-1.8781l-1.96-67.7201c-.036-1.2329-1.2411-2.0893-2.4171-1.7176z" fill="#000" fill-rule="evenodd"/><path d="m73.5496 29.9763 5.7032-1.8617v15.2676l-2.8516-1.7495-2.8516 2.8516z" fill="#000"/><path clip-rule="evenodd" d="m71.6918 29.9763c0-.8039.5171-1.5166 1.2813-1.766l5.7033-1.8617c.5657-.1847 1.1857-.0871 1.6674.2624.4817.3494.7668.9085.7668 1.5036v15.2676c0 .6726-.3635 1.2926-.9504 1.6211-.587.3285-1.3056.3141-1.8788-.0376l-1.6027-.9833-1.8155 1.8155c-.5313.5313-1.3304.6903-2.0246.4027-.6941-.2875-1.1468-.9649-1.1468-1.7163zm7.561 13.4059-2.8516-1.7495-2.8516 2.8516v-14.508l5.7032-1.8617z" fill="#000" fill-rule="evenodd"/><path d="m61.4882 33.7252-37.4025-6.3449c-1.1127-.1888-2.1352.6501-2.1677 1.7782l-1.9514 67.8367c-.0287.9977.7361 1.8398 1.7319 1.907l39.354 2.6548c1.0728.073 1.9828-.778 1.9828-1.8533v-64.1469c0-.9062-.6537-1.6801-1.5471-1.8316z" fill="#fff"/><g fill="#000"><path clip-rule="evenodd" d="m24.3964 25.5487 37.4026 6.3449c1.7866.3031 3.094 1.8509 3.094 3.6631v64.147c0 2.1503-1.82 3.8513-3.9656 3.7073l-39.3539-2.655c-1.9917-.135-3.5213-1.8188-3.4639-3.8142l1.9515-67.8368c.0649-2.2562 2.11-3.9338 4.3353-3.5563zm-.3107 1.8316 37.4026 6.3449c.8933.1515 1.547.9254 1.547 1.8315v64.147c0 1.0753-.91 1.9263-1.9828 1.8533l-39.354-2.6549c-.9958-.0671-1.7606-.9092-1.7319-1.9069l1.9514-67.8368c.0325-1.1281 1.0551-1.9669 2.1677-1.7781z" fill-rule="evenodd"/><path clip-rule="evenodd" d="m99.1515 47.5092c-.0984-.5035-.5863-.8319-1.0898-.7336l-29.6192 5.7861c-.5035.0984-.8319.5863-.7335 1.0897.0983.5035.5862.8319 1.0897.7336l29.6192-5.7861c.5035-.0983.8319-.5862.7336-1.0897z" fill-rule="evenodd"/><path clip-rule="evenodd" d="m99.1515 51.7799c-.0984-.5035-.5863-.8319-1.0898-.7335l-29.6192 5.7861c-.5035.0983-.8319.5862-.7335 1.0897.0983.5035.5862.8319 1.0897.7335l29.6192-5.786c.5035-.0984.8319-.5863.7336-1.0898z" fill-rule="evenodd"/><path clip-rule="evenodd" d="m99.1515 68.9317c-.0984-.5035-.5863-.8319-1.0898-.7336l-29.6192 5.7861c-.5035.0984-.8319.5862-.7335 1.0897.0983.5035.5862.8319 1.0897.7336l29.6192-5.7861c.5035-.0984.8319-.5862.7336-1.0897z" fill-rule="evenodd"/><path clip-rule="evenodd" d="m99.1515 56.1885c-.0984-.5035-.5863-.8319-1.0898-.7335l-29.6192 5.786c-.5035.0984-.8319.5863-.7335 1.0898.0983.5034.5862.8319 1.0897.7335l29.6192-5.7861c.5035-.0983.8319-.5862.7336-1.0897z" fill-rule="evenodd"/><path clip-rule="evenodd" d="m99.1515 73.3402c-.0984-.5034-.5863-.8319-1.0898-.7335l-29.6192 5.7861c-.5035.0983-.8319.5862-.7335 1.0897.0983.5035.5862.8319 1.0897.7335l29.6192-5.786c.5035-.0984.8319-.5863.7336-1.0898z" fill-rule="evenodd"/><path clip-rule="evenodd" d="m99.1515 60.7693c-.0984-.5035-.5863-.8319-1.0898-.7335l-29.6192 5.786c-.5035.0984-.8319.5863-.7335 1.0898.0983.5035.5862.8319 1.0897.7335l29.6192-5.7861c.5035-.0983.8319-.5862.7336-1.0897z" fill-rule="evenodd"/><path clip-rule="evenodd" d="m99.1515 77.9212c-.0984-.5035-.5863-.8319-1.0898-.7336l-29.6192 5.7861c-.5035.0984-.8319.5862-.7335 1.0897.0983.5035.5862.8319 1.0897.7336l29.6192-5.7861c.5035-.0984.8319-.5862.7336-1.0897z" fill-rule="evenodd"/><path clip-rule="evenodd" d="m85.7229 85.3458c-.0872-.5056-.5676-.8448-1.0732-.7576l-16.1872 2.7899c-.5056.0872-.8448.5676-.7576 1.0732.0871.5055.5676.8447 1.0731.7576l16.1873-2.79c.5055-.0871.8447-.5676.7576-1.0731z" fill-rule="evenodd"/><path clip-rule="evenodd" d="m26.0854 67.4576c.0468-.5109.499-.887 1.0098-.8402l30.0325 2.7553c.5109.0469.887.499.8401 1.0099-.0468.5108-.4989.887-1.0098.8401l-30.0325-2.7553c-.5109-.0469-.887-.499-.8401-1.0098z" fill-rule="evenodd"/><path clip-rule="evenodd" d="m26.0854 79.853c.0468-.5109.499-.887 1.0098-.8402l30.0325 2.7553c.5109.0469.887.499.8401 1.0098-.0468.5109-.4989.887-1.0098.8402l-30.0325-2.7553c-.5109-.0469-.887-.499-.8401-1.0098z" fill-rule="evenodd"/><path clip-rule="evenodd" d="m26.0836 71.881c.0344-.5119.4772-.8989.9891-.8645l16.3939 1.1021c.5118.0344.8988.4772.8644.9891-.0344.5118-.4772.8989-.9891.8645l-16.3938-1.1021c-.5119-.0345-.8989-.4773-.8645-.9891z" fill-rule="evenodd"/><path clip-rule="evenodd" d="m26.0837 84.2739c.0359-.5117.4798-.8975.9915-.8617l23.5275 1.647c.5117.0358.8976.4797.8617.9914-.0358.5118-.4797.8976-.9914.8618l-23.5275-1.647c-.5118-.0358-.8976-.4797-.8618-.9915z" fill-rule="evenodd"/><path clip-rule="evenodd" d="m26.0836 88.2312c.0344-.5119.4772-.8989.9891-.8645l16.3939 1.1021c.5118.0344.8988.4773.8644.9891-.0344.5119-.4772.8989-.9891.8645l-16.3938-1.1021c-.5119-.0344-.8989-.4773-.8645-.9891z" fill-rule="evenodd"/><path d="m52.5858 63c-.1802 0-.3254-.0609-.4356-.1828-.1001-.1341-.1502-.3108-.1502-.5302v-8.5923c.01-.2072.0651-.3717.1652-.4936.1102-.1341.2504-.2011.4206-.2011h.0151 3.6652c.691 0 1.2568.2438 1.6974.7313.4507.4875.676 1.1151.676 1.883 0 .524-.1002.9628-.3004 1.3162-.2003.3413-.4657.5972-.7962.7679.4507.2071.8062.5301 1.0665.9689.2604.4265.3906.9201.3906 1.4808 0 .5606-.1152 1.0542-.3455 1.4808-.2203.4266-.5358.7617-.9463 1.0055-.4006.2437-.8613.3656-1.382.3656zm3.6803-8.7203h-3.1094v2.9068h3.1695c.3505 0 .6359-.1402.8562-.4205s.3305-.6399.3305-1.0786c0-.39-.1202-.7191-.3605-.9872-.2304-.2803-.5258-.4205-.8863-.4205zm-3.1094 7.4223h3.1695c.4506 0 .8212-.1401 1.1116-.4205.2904-.2803.4356-.6825.4356-1.2065 0-.5485-.1452-.9629-.4356-1.2432-.2904-.2925-.661-.4387-1.1116-.4387h-3.1695z"/><path clip-rule="evenodd" d="m51.9956 62.9444-.0056-.0075c-.133-.178-.19-.4008-.19-.6499v-8.602c.0114-.2366.0758-.4467.2107-.6109.1473-.1792.3437-.2741.5751-.2741h3.6803c.7439 0 1.3644.265 1.845.7963.4897.5301.7284 1.2087.7284 2.018 0 .5488-.1049 1.0238-.3264 1.4148l-.0015.0027c-.1542.2627-.3456.4814-.5739.6538.3438.218.6252.5117.8431.8786.2814.4614.4192.9915.4192 1.5839 0 .5879-.1208 1.1145-.3686 1.5742-.2372.4586-.5782.8209-1.0202 1.0835-.4351.2645-.9322.3942-1.485.3942h-3.7404c-.2306 0-.4319-.0805-.584-.2487zm5.7126-.31c.4105-.2438.726-.5789.9463-1.0055.2303-.4266.3455-.9202.3455-1.4808 0-.5607-.1302-1.0543-.3906-1.4808-.218-.3674-.5026-.6536-.854-.8586-.0683-.0398-.1391-.0766-.2125-.1103.0713-.0368.1395-.0776.2048-.1223.2371-.1627.4343-.3779.5914-.6456.2002-.3534.3004-.7922.3004-1.3162 0-.7679-.2253-1.3955-.676-1.883-.4406-.4875-1.0064-.7313-1.6974-.7313h-3.6803c-.1702 0-.3104.067-.4206.2011-.1001.1219-.1552.2864-.1652.4936v8.5923c0 .2194.0501.3961.1502.5302.1102.1219.2554.1828.4356.1828h3.7404c.5207 0 .9814-.1219 1.382-.3656zm-.7104-7.8072c-.1926-.2345-.4315-.3475-.7317-.3475h-2.9094v2.5068h2.9695c.2879 0 .5158-.111.699-.3441.1867-.2375.2877-.5505.2877-.955 0-.3452-.1049-.6255-.3095-.8537zm-3.8411 2.3593v-2.9068h3.1094c.3605 0 .6559.1402.8863.4205.2403.2681.3605.5972.3605.9872 0 .4387-.1102.7983-.3305 1.0786s-.5057.4205-.8562.4205zm4.1391 1.7862c-.2491-.2509-.5668-.3796-.9696-.3796h-2.9695v2.9089h2.9695c.4054 0 .724-.1243.9727-.3644.2406-.2322.3745-.5759.3745-1.0626 0-.5143-.1356-.8686-.3745-1.0993zm-4.1391 2.7293v-3.3089h3.1695c.4506 0 .8212.1462 1.1116.4387.2904.2803.4356.6947.4356 1.2432 0 .524-.1452.9262-.4356 1.2065-.2904.2804-.661.4205-1.1116.4205z" fill-rule="evenodd"/><path d="m40 56.5885v-.0389-.0195-1.5378c.0124-1.726.454-3.2703 1.3246-4.6329.8707-1.3756 2.2264-2.4332 4.0672-3.1729l2.7425-1.1291c.4354-.1427.7214-.0194.8582.3699.0622.2076.0622.3893 0 .545-.0497.1558-.1927.2791-.4291.3699l-2.9104 1.2458c-1.5174.6229-2.6244 1.4535-3.3209 2.4916-.6965 1.0382-1.0945 2.1867-1.194 3.4455.3358-.8305.8582-1.4859 1.5671-1.966.709-.4932 1.5361-.7398 2.4814-.7398.9328 0 1.7599.2142 2.4813.6424.7338.4283 1.306 1.0252 1.7164 1.7909.4105.7656.6157 1.6416.6157 2.6279 0 .9992-.2114 1.8882-.6343 2.6668-.4229.7657-1.0075 1.3691-1.7538 1.8103-.7462.4283-1.6044.6424-2.5746.6424-.9826 0-1.8532-.2336-2.6119-.7008s-1.3557-1.103-1.7911-1.9076c-.4229-.8176-.6343-1.752-.6343-2.8031zm5.0373 4.0489c.6965 0 1.3122-.1557 1.847-.4672.5349-.3244.9515-.7657 1.25-1.3237.311-.571.4664-1.2263.4664-1.966 0-.7268-.1554-1.3691-.4664-1.9271-.2985-.5581-.7151-.9928-1.25-1.3043-.5348-.3114-1.1505-.4671-1.847-.4671-.7089 0-1.3371.1557-1.8843.4671-.5473.3115-.9764.7462-1.2873 1.3043-.2985.558-.4478 1.2003-.4478 1.9271 0 .7397.1493 1.395.4478 1.966.3109.558.74.9993 1.2873 1.3237.5472.3115 1.1754.4672 1.8843.4672z"/><path clip-rule="evenodd" d="m39.8 54.9908c.0127-1.7608.4637-3.3423 1.3559-4.7387.8975-1.4179 2.29-2.4991 4.1605-3.2509.0003-.0001-.0002.0001 0 0l2.7486-1.1315.007-.0023c.2427-.0796.4776-.0965.6825-.0082.2096.0903.3461.2724.4267.5018l.0031.0089c.0706.2356.0771.4634-.0035.6702-.0779.2344-.2847.3878-.542.4874l-2.9099 1.2455c-1.492.6125-2.5622 1.4217-3.2307 2.4181-.4681.6976-.7974 1.446-.9881 2.2461.2964-.407.6571-.7551 1.0819-1.043.7455-.5182 1.613-.7749 2.5946-.7749.9643 0 1.8273.2217 2.5828.6701.7661.4472 1.3638 1.0715 1.7912 1.8687.428.7984.6394 1.7076.6394 2.7224 0 1.0282-.2178 1.9507-.6586 2.7623l-.0006.0012c-.44.7966-1.0498 1.4262-1.8271 1.8858l-.0022.0013c-.7803.4478-1.6736.6689-2.6742.6689-1.0157 0-1.9234-.2419-2.7168-.7305-.7894-.486-1.4105-1.1482-1.8621-1.9828l-.0017-.0032c-.4396-.8498-.6567-1.8165-.6567-2.895zm2.9052-2.4318c-.5429.3677-.9764.8382-1.3005 1.4113-.0991.1753-.188.3603-.2666.5548.0166-.2103.0415-.4174.0748-.6215.166-1.0179.539-1.9592 1.1192-2.824.6965-1.0381 1.8035-1.8687 3.3209-2.4916l2.9104-1.2458c.2364-.0908.3794-.2141.4291-.3699.0622-.1557.0622-.3374 0-.545-.1368-.3893-.4228-.5126-.8582-.3699l-2.7425 1.1291c-1.8408.7397-3.1965 1.7973-4.0672 3.1729-.8706 1.3626-1.3122 2.9069-1.3246 4.6329v1.5962c0 1.0511.2114 1.9855.6343 2.8031.4354.8046 1.0324 1.4404 1.7911 1.9076s1.6293.7008 2.6119.7008c.9702 0 1.8284-.2141 2.5746-.6424.7463-.4412 1.3309-1.0446 1.7538-1.8103.4229-.7786.6343-1.6676.6343-2.6668 0-.9863-.2052-1.8623-.6157-2.6279-.4104-.7657-.9826-1.3626-1.7164-1.7909-.7214-.4282-1.5485-.6424-2.4813-.6424-.9453 0-1.7724.2466-2.4814.7397zm5.2528 2.4887c-.2815-.5261-.6723-.9334-1.1743-1.2257-.5006-.2915-1.0807-.44-1.7464-.44-.6787 0-1.2719.1487-1.7854.441-.5145.2928-.9173.7004-1.2107 1.2262-.2803.5246-.4233 1.1332-.4233 1.8313 0 .7112.1431 1.3331.4238 1.871.2934.5256.6965.94 1.2117 1.2458.5132.2916 1.1059.4401 1.7839.4401.665 0 1.2446-.1482 1.7449-.4391.503-.3056.8943-.7198 1.1758-1.2461l.0007-.0013c.2929-.5378.442-1.1595.442-1.8704 0-.6974-.1489-1.3054-.4411-1.8298zm-1.0737 5.1225c-.5348.3115-1.1505.4672-1.847.4672-.7089 0-1.337-.1557-1.8843-.4672-.5473-.3244-.9764-.7657-1.2873-1.3237-.2985-.571-.4478-1.2263-.4478-1.966 0-.7268.1493-1.3691.4478-1.9271.3109-.5581.74-.9928 1.2873-1.3043.5473-.3114 1.1754-.4671 1.8843-.4671.6965 0 1.3122.1557 1.847.4671.5349.3115.9515.7462 1.25 1.3043.311.558.4664 1.2003.4664 1.9271 0 .7397-.1554 1.395-.4664 1.966-.2985.558-.7151.9993-1.25 1.3237z" fill-rule="evenodd"/><path clip-rule="evenodd" d="m32.1904 40.4224c.3963.019.7368.2875.8476.6684l5.5105 18.9425c.1433.4926-.1398 1.0081-.6324 1.1514s-1.0081-.1399-1.1514-.6325l-4.755-16.3456-6.2331 15.6718c-.1896.4766-.7297.7094-1.2064.5198s-.7094-.7297-.5198-1.2064l7.2326-18.1848c.1466-.3687.5111-.6035.9074-.5846z" fill-rule="evenodd"/><path clip-rule="evenodd" d="m36.2097 53.095c0 .513-.4159.9289-.9289.9289h-7.7493c-.513 0-.9289-.4159-.9289-.9289s.4159-.9289.9289-.9289h7.7493c.513 0 .9289.4159.9289.9289z" fill-rule="evenodd"/></g></svg>