<svg fill="none" height="128" viewBox="0 0 128 128" width="128" xmlns="http://www.w3.org/2000/svg" xmlns:xlink="http://www.w3.org/1999/xlink"><clipPath id="a"><path d="m24 24h80v80h-80z"/></clipPath><rect fill="#d0e2ff" height="122" rx="9" stroke="#0f62fe" stroke-width="6" width="122" x="3" y="3"/><g clip-path="url(#a)"><path d="m54.7663 79.3879v.0615 24.5556h-6.1542v-17.6628l-13.847 15.5698c-2.277 2.585-6.1542 2.77-8.6774.554-2.5848-2.277-2.7694-6.154-.5539-8.6773l23.0783-25.9707v-25.3554h-6.1542v-6.1542l21.5397-12.3084 21.5398 12.3084v6.1542h-6.1542v24.6169l15.3855 24.6168h3.0771c3.3852 0 6.1542 2.7694 6.1542 6.1542 0 3.3845-2.769 6.1545-6.1542 6.1545h-9.2313l-9.2313-14.7704v14.7704h-6.1542v-24.6171zm3.631-14.2162c.0615.0615.0615.0615.1231.1231 1.5385 1.1077 3.4463 1.7847 5.4772 1.7847 5.108 0 9.2314-4.1233 9.2314-9.2313s-4.1234-9.2314-9.2314-9.2314-9.2313 4.1234-9.2313 9.2314c0 3.0155 1.4155 5.6618 3.631 7.3235z" fill="#000"/></g></svg>