<svg fill="none" height="128" viewBox="0 0 128 128" width="128" xmlns="http://www.w3.org/2000/svg"><rect fill="#24a148" height="128" rx="10" width="128"/><path d="m11.6126 101.334h104.9474c0 1.937-1.57 3.507-3.507 3.507h-97.9338c-1.9366 0-3.5066-1.57-3.5066-3.507z" fill="#000"/><g stroke="#000"><rect fill="#fff" height="5.50659" rx="2.7533" stroke-width="2" width="110.907" x="8.54642" y="96.2018"/><rect fill="#fff" height="69.841" rx="5" stroke-linecap="round" stroke-linejoin="round" stroke-width="2" width="21.3184" x="12.2147" y="25.1449"/><rect fill="#fff" height="69.841" rx="5" stroke-linecap="round" stroke-linejoin="round" stroke-width="2" width="21.3184" x="33.9101" y="25.1449"/><ellipse cx="22.8047" cy="65.9198" rx="4.04636" ry="5.8543" stroke-width="2"/><ellipse cx="44.5694" cy="65.9198" rx="4.04636" ry="5.8543" stroke-width="2"/><path d="m12.6458 38.4562h20.1457" stroke-linecap="round" stroke-linejoin="round" stroke-width="2"/><path d="m12.6457 42.933h20.1456" stroke-linecap="round" stroke-linejoin="round" stroke-width="2"/><path d="m34.4965 38.4562h20.1456" stroke-linecap="round" stroke-linejoin="round" stroke-width="2"/><path d="m34.4966 42.933h20.1457" stroke-linecap="round" stroke-linejoin="round" stroke-width="2"/><rect fill="#fff" height="69.841" rx="5" stroke-linecap="round" stroke-linejoin="round" stroke-width="2" width="21.3184" x="55.6053" y="25.145"/><ellipse cx="66.2645" cy="65.9198" rx="4.04636" ry="5.8543" stroke-width="2"/><path d="m55.7784 38.4563h20.1457" stroke-linecap="round" stroke-linejoin="round" stroke-width="2"/><path d="m55.7777 42.9332h20.1457" stroke-linecap="round" stroke-linejoin="round" stroke-width="2"/></g><rect fill="#000" height="70.5529" rx="5" transform="matrix(.96592583 -.25881905 .25881905 .96592583 -4.898605 20.5182)" width="22.0397" x="75.4763" y="28.8634"/><ellipse cx="96.7697" cy="65.7188" fill="#000" rx="4.04636" ry="5.8543" stroke="#fff" stroke-width="2" transform="matrix(.96592583 -.25881905 .25881905 .96592583 -13.711929 27.285155)"/><path d="m80.8374 41.5554 17.4887-4.6861" stroke="#fff" stroke-linecap="round" stroke-linejoin="round" stroke-width="2"/><path d="m81.9962 45.8796 17.4888-4.6861" stroke="#fff" stroke-linecap="round" stroke-linejoin="round" stroke-width="2"/></svg>