<?xml version="1.0" encoding="UTF-8"?>
<svg width="198" height="198" version="1.1" viewbox="0 0 235 235" xmlns="http://www.w3.org/2000/svg" xmlns:cc="http://creativecommons.org/ns#" xmlns:dc="http://purl.org/dc/elements/1.1/" xmlns:rdf="http://www.w3.org/1999/02/22-rdf-syntax-ns#">
 <metadata>
  <rdf:RDF>
   <cc:Work rdf:about="">
    <dc:format>image/svg+xml</dc:format>
    <dc:type rdf:resource="http://purl.org/dc/dcmitype/StillImage"/>
    <dc:title/>
   </cc:Work>
  </rdf:RDF>
 </metadata>
 <g id="School" transform="translate(-18.501,-18.502)">
  <rect width="235" height="235" opacity="0"/>
  <path d="m117.5 18.502c-54.676 0-98.999 44.323-98.999 98.999 0 54.675 44.323 98.999 98.999 98.999 54.675 0 98.999-44.324 98.999-98.999 0-54.676-44.324-98.999-98.999-98.999zm0 184.48c-47.209 0-85.479-38.27-85.479-85.478 0-47.209 38.271-85.479 85.479-85.479s85.479 38.271 85.479 85.479-38.271 85.478-85.479 85.478z" fill="#a02c2c"/>
  <path d="m197.23 117.5c0 44.03-35.694 79.724-79.726 79.724-44.033 0-79.728-35.693-79.728-79.724 0-44.033 35.694-79.729 79.728-79.729 44.031 0 79.726 35.696 79.726 79.729z" fill="#eda33f"/>
  <ellipse cx="117.5" cy="153.81" rx="65.733" ry="6.073"/>
  <rect x="60.466" y="108.47" width="114.07" height="2.952" fill="#352200"/>
  <polygon points="133.27 111.41 133.27 85.643 117.5 75.444 117.5 75.444 101.73 85.643 101.73 111.41 61.74 111.41 61.74 153.81 173.26 153.81 173.26 111.41" fill="#d3d5d6"/>
  <rect x="110.19" y="134.22" width="14.625" height="19.593" fill="#352200"/>
  <circle cx="117.5" cy="97.452" r="10.735" fill="#352200"/>
  <circle cx="117.5" cy="97.452" r="9.109" fill="#fff"/>
  <path d="m116.7 90.62v6.555h-6.555v1.92h7.515c0.529-1e-3 0.959-0.43 0.959-0.96h1e-3v-7.515z" fill="#352200"/>
  <polygon points="117.5 77.494 134.32 87.653 134.32 82.305 117.5 72.126 100.68 82.305 100.68 87.653" fill="#352200"/>
  <g fill="#8fbdcf">
   <rect x="65.498" y="115.7" width="9.662" height="12.749"/>
   <rect x="78.918" y="115.7" width="9.662" height="12.749"/>
   <rect x="92.337" y="115.7" width="9.662" height="12.749"/>
   <rect x="65.498" y="135.3" width="9.662" height="12.749"/>
   <rect x="78.918" y="135.3" width="9.662" height="12.749"/>
   <rect x="92.337" y="135.3" width="9.662" height="12.749"/>
  </g>
  <g fill="#8fbdcf">
   <rect x="130.98" y="115.7" width="9.662" height="12.749"/>
   <rect x="144.4" y="115.7" width="9.662" height="12.749"/>
   <rect x="157.82" y="115.7" width="9.662" height="12.749"/>
   <rect x="130.98" y="135.3" width="9.662" height="12.749"/>
   <rect x="144.4" y="135.3" width="9.662" height="12.749"/>
   <rect x="157.82" y="135.3" width="9.662" height="12.749"/>
  </g>
  <path d="m85.071 69.224c-0.73 0-1.322 0.373-1.322 0.833v86.333c0 0.46 0.592 0.833 1.322 0.833 0.731 0 1.323-0.373 1.323-0.833v-86.333c1e-3 -0.46-0.591-0.833-1.323-0.833z" fill="#58595b"/>
  <path d="m83.749 70.64c-2.854 0-4.058 2.25-5.831 2.833s-4.774 0.917-6.94 0.833v10c3.167-0.083 5.584-0.25 7.584-1.667s3.209-1.75 5.188-1.75v-10.249z" fill="#001cff"/>
  <path d="m83.775 75.583c-2.854 0-4.058 2.25-5.831 2.833s-4.774 0.917-6.94 0.833l-0.0318 5.1293c3.167-0.083 5.584-0.25 7.584-1.667s3.209-1.75 5.188-1.75l0.0318-5.3783z" fill="#edff24"/>
 </g>
</svg>
