<svg fill="none" height="128" viewBox="0 0 128 128" width="128" xmlns="http://www.w3.org/2000/svg"><rect fill="#878d96" height="128" rx="10" width="128"/><path d="m125 63.7349c0 9.9026-8.059 17.9299-18.001 17.9299-9.9418 0-18.0009-8.0273-18.0009-17.9299s8.0591-34.7349 18.0009-34.7349c9.942 0 18.001 24.8323 18.001 34.7349z" fill="#99c94f"/><g fill="#8f5a46"><path d="m107.035 96c-.5 0-.905-.4032-.905-.902v-39.8071c0-.4979.405-.902.905-.902s.906.4041.906.902v39.8071c.001.4979-.406.902-.906.902z"/><path d="m107.036 64.1246c-.244 0-.487-.0965-.665-.2896-.339-.3653-.317-.9363.05-1.2745l5.417-4.9901c.367-.3383.938-.3167 1.279.0496.34.3662.317.9363-.05 1.2746l-5.416 4.991c-.175.1596-.396.239-.615.239z"/><path d="m107.035 71.7928c-.22 0-.441-.0793-.615-.2399l-7.5651-6.9692c-.3668-.3382-.3895-.9092-.0499-1.2746.3397-.3662.9129-.3887 1.281-.0505l7.565 6.9692c.367.3383.39.9092.05 1.2746-.179.1921-.422.2904-.666.2904z"/></g><path d="m122.404 95.9574h-55.7702c-.3499 0-.6338-.4535-.6338-1.0145s.2839-1.0145.6338-1.0145h55.7702c.35 0 .634.4535.634 1.0145s-.284 1.0145-.634 1.0145z" fill="#577628"/><path d="m89.7427 94.6442h-81.56243v-41.1864h16.87513l23.9061-25.9322 23.9068 25.9322h16.8744z" fill="#e6be94"/><path d="m57.399 76.3391h-16.875v18.3051h16.875z" fill="#996459"/><path d="m57.0475 70.2374h-16.1719c-.1943 0-.3516.1707-.3516.3814v5.7203h16.875v-5.7203c0-.2107-.1573-.3814-.3515-.3814z" fill="#4bb9ec"/><path d="m54.6937 34.5688c.2169-.5705.7306-.9415 1.2992-.9415h26.7188c.4806 0 .9283.2665 1.1865.706l9.8437 16.7797c.276.4708.2925 1.0651.0468 1.5536-.2471.4872-.7196.791-1.2333.791h-21.0937c-.3736 0-.7306-.161-.9942-.447l-15.4688-16.7796c-.4025-.4363-.5235-1.0917-.305-1.6622z" fill="#ff4f19"/><path d="m43.268 34.5688c-.2171-.5707-.7308-.9415-1.2992-.9415h-26.7188c-.4806 0-.9283.2665-1.1865.706l-9.84376 16.7797c-.27597.4708-.2925 1.0651-.04675 1.5536.24732.4872.71964.7912 1.23328.7912h21.09373c.3735 0 .7306-.161.9942-.447l15.4688-16.7796c.4023-.4365.5233-1.0919.305-1.6624z" fill="#ff4f19"/><path d="m72.8871 54.9624c-.3598 0-.7197-.1489-.9942-.4469l-22.8929-24.8328-22.8927 24.8328c-.5493.5958-1.4393.5958-1.9886 0-.5493-.5959-.5493-1.5613 0-2.1572l23.8871-25.9114c.5493-.5959 1.4393-.5959 1.9886 0l23.8871 25.9114c.5493.5959.5493 1.5613 0 2.1572-.2749.2978-.6346.4469-.9944.4469z" fill="#e3001e"/><path d="m49.0002 62.6103c4.6599 0 8.4375-4.0977 8.4375-9.1525s-3.7776-9.1526-8.4375-9.1526-8.4375 4.0978-8.4375 9.1526 3.7776 9.1525 8.4375 9.1525z" fill="#ffebb7"/><path d="m70.0553 63.373c0-2.1062-1.574-3.8135-3.5157-3.8135-1.9416 0-3.5156 1.7073-3.5156 3.8135 0 .2613.0248.5162.0708.7627h-.0708v6.1017h7.0313v-6.1017h-.0709c.0462-.2465.0709-.5014.0709-.7627z" fill="#4bb9ec"/><path d="m66.5781 58.034c-2.7137 0-4.9219 2.3953-4.9219 5.339v6.8644c0 .8432.629 1.5255 1.4063 1.5255h7.0312c.7774 0 1.4063-.6823 1.4063-1.5255v-6.8644c0-2.9437-2.2082-5.339-4.9219-5.339zm0 3.0509c1.1632 0 2.1094 1.0264 2.1094 2.2881v.7627h-4.2188v-.7627c0-1.2617.9463-2.2881 2.1094-2.2881zm-2.1094 7.6271v-1.5254h4.2188v1.5254z" fill="#7e5c62"/><path d="m34.9377 77.8645h-7.0313v9.1526h7.0313z" fill="#4bb9ec"/><path d="m34.9375 76.3391h-7.0312c-.7773 0-1.4063.6823-1.4063 1.5255v9.1525c0 .8432.629 1.5254 1.4063 1.5254h7.0312c.7773 0 1.4063-.6822 1.4063-1.5254v-9.1525c0-.8432-.629-1.5255-1.4063-1.5255zm-1.4062 3.0509v1.5254h-4.2188v-1.5254zm-4.2188 6.1017v-1.5255h4.2188v1.5255z" fill="#7e5c62"/><path d="m22.2429 77.8645h-7.0312v9.1526h7.0312z" fill="#4bb9ec"/><path d="m22.2428 76.3391h-7.0313c-.7773 0-1.4062.6823-1.4062 1.5255v9.1525c0 .8432.6289 1.5254 1.4062 1.5254h7.0313c.7773 0 1.4062-.6822 1.4062-1.5254v-9.1525c0-.8432-.6289-1.5255-1.4062-1.5255zm-1.4063 3.0509v1.5254h-4.2187v-1.5254zm-4.2187 6.1017v-1.5255h4.2187v1.5255z" fill="#7e5c62"/><path d="m82.75 77.8645h-7.0312v9.1526h7.0312z" fill="#4bb9ec"/><path d="m82.75 76.3391h-7.0313c-.7773 0-1.4062.6823-1.4062 1.5255v9.1525c0 .8432.6289 1.5254 1.4062 1.5254h7.0313c.7773 0 1.4062-.6822 1.4062-1.5254v-9.1525c0-.8432-.6289-1.5255-1.4062-1.5255zm-1.4063 3.0509v1.5254h-4.2187v-1.5254zm-4.2187 6.1017v-1.5255h4.2187v1.5255z" fill="#7e5c62"/><path d="m70.0554 77.8645h-7.0312v9.1526h7.0312z" fill="#4bb9ec"/><path d="m70.0553 76.3391h-7.0313c-.7773 0-1.4062.6823-1.4062 1.5255v9.1525c0 .8432.6289 1.5254 1.4062 1.5254h7.0313c.7773 0 1.4062-.6822 1.4062-1.5254v-9.1525c0-.8432-.6289-1.5255-1.4062-1.5255zm-1.4063 3.0509v1.5254h-4.2187v-1.5254zm-4.2187 6.1017v-1.5255h4.2187v1.5255z" fill="#7e5c62"/><path d="m82.6732 63.373c0-2.1062-1.574-3.8135-3.5156-3.8135-1.9417 0-3.5157 1.7073-3.5157 3.8135 0 .2613.0248.5162.0709.7627h-.0709v6.1017h7.0313v-6.1017h-.0709c.0461-.2465.0709-.5014.0709-.7627z" fill="#4bb9ec"/><path d="m79.1959 58.034c-2.7137 0-4.9219 2.3953-4.9219 5.339v6.8644c0 .8432.6289 1.5255 1.4063 1.5255h7.0312c.7773 0 1.4063-.6823 1.4063-1.5255v-6.8644c0-2.9437-2.2082-5.339-4.9219-5.339zm0 3.0509c1.1631 0 2.1094 1.0264 2.1094 2.2881v.7627h-4.2188v-.7627c0-1.2617.9462-2.2881 2.1094-2.2881zm-2.1094 7.6271v-1.5254h4.2188v1.5254z" fill="#7e5c62"/><path d="m22.2044 63.373c0-2.1062-1.5739-3.8135-3.5156-3.8135s-3.5156 1.7073-3.5156 3.8135c0 .2613.0248.5162.0708.7627h-.0708v6.1017h7.0312v-6.1017h-.0708c.0461-.2465.0708-.5014.0708-.7627z" fill="#4bb9ec"/><path d="m18.7271 58.034c-2.7137 0-4.9218 2.3953-4.9218 5.339v6.8644c0 .8432.6289 1.5255 1.4062 1.5255h7.0313c.7773 0 1.4062-.6823 1.4062-1.5255v-6.8644c0-2.9437-2.2081-5.339-4.9219-5.339zm0 3.0509c1.1632 0 2.1094 1.0264 2.1094 2.2881v.7627h-4.2187v-.7627c0-1.2617.9462-2.2881 2.1093-2.2881zm-2.1093 7.6271v-1.5254h4.2187v1.5254z" fill="#7e5c62"/><path d="m34.8222 63.373c0-2.1062-1.5739-3.8135-3.5156-3.8135s-3.5157 1.7073-3.5157 3.8135c0 .2613.0248.5162.0709.7627h-.0709v6.1017h7.0313v-6.1017h-.0708c.046-.2465.0708-.5014.0708-.7627z" fill="#4bb9ec"/><path d="m31.3451 58.034c-2.7137 0-4.9219 2.3953-4.9219 5.339v6.8644c0 .8432.6289 1.5255 1.4062 1.5255h7.0313c.7773 0 1.4062-.6823 1.4062-1.5255v-6.8644c0-2.9437-2.2083-5.339-4.9218-5.339zm0 3.0509c1.1631 0 2.1093 1.0264 2.1093 2.2881v.7627h-4.2187v-.7627c0-1.2617.946-2.2881 2.1094-2.2881zm-2.1094 7.6271v-1.5254h4.2187v1.5254z" fill="#7e5c62"/><path d="m49 64.1357c-5.4279 0-9.8437-4.79-9.8437-10.6779 0-5.888 4.4158-10.678 9.8437-10.678 5.428 0 9.8438 4.79 9.8438 10.678 0 5.8879-4.4158 10.6779-9.8438 10.6779zm0-18.3051c-3.8768 0-7.0312 3.4214-7.0312 7.6272s3.1544 7.6271 7.0312 7.6271c3.8769 0 7.0313-3.4213 7.0313-7.6271s-3.1544-7.6272-7.0313-7.6272z" fill="#7e5c62"/><path d="m54.625 68.712h-11.25c-2.3263 0-4.2187 2.0528-4.2187 4.5763v21.3559c0 .8432.6289 1.5254 1.4062 1.5254s1.4063-.6822 1.4063-1.5254v-16.7797h5.5865v16.7797h2.8125v-16.7797h5.6635v16.7797c0 .8432.6289 1.5254 1.4062 1.5254s1.4063-.6822 1.4063-1.5254v-21.3559c0-2.5235-1.8925-4.5763-4.2188-4.5763zm1.4063 6.1017h-14.0625v-1.5254c0-.8417.6303-1.5254 1.4062-1.5254h11.25c.7759 0 1.4063.6837 1.4063 1.5254z" fill="#7e5c62"/><path d="m92.5938 96.1696h-87.18746c-.7773 0-1.40625-.6822-1.40625-1.5254s.62895-1.5254 1.40625-1.5254h87.18746c.7773 0 1.4063.6822 1.4063 1.5254s-.629 1.5254-1.4063 1.5254z" fill="#5c546a"/><path d="m15.4502 95.1629c-.042-.058-.108-.0924-.178-.0924h-.2391c0-.03-.0056-.0604-.0176-.0899-.8922-2.1884-2.5799-3.6412-5.01681-4.3185-.08889-.0247-.18244.0097-.23666.0864-.05422.0768-.05756.1798-.00822.2601.76129 1.2407 1.31219 2.7546 1.67399 4.6209-1.3442-1.2536-2.9031-1.8191-5.19663-1.9147-.09222-.0053-.18045.0539-.21533.1447-.03489.0906-.01089.1944.05977.2589 1.51355 1.3784 2.23176 3.2523 2.40198 6.2666.00023.004.00245.007.00289.011.00222.021.00734.042.01534.062.00222.006.00355.012.006.017.00111.002.00133.004.00244.007.01067.02.02467.038.04044.054.00378.004.00823.006.01245.01.01511.013.03133.024.04933.033.00645.003.01245.006.01911.008.02334.009.04756.015.07311.015h.00045.00022 5.12613c.0985 0 .1852-.067.2132-.165l1.4464-5.0707c.02-.0696.0071-.145-.0349-.2034z" fill="#719c40"/><path d="m25.9841 93.8595c-.0349-.0906-.1198-.1468-.2153-.1447-2.2933.0956-3.8522.6611-5.1966 1.9147.3617-1.8661.9126-3.38 1.6739-4.6207.0494-.0802.0458-.1835-.0082-.26-.054-.0766-.148-.1109-.2366-.0865-2.2125.6148-3.8053 1.8715-4.7482 3.7353l-1.0378-4.224c-.0251-.1021-.1138-.1736-.2153-.1736-.1016 0-.1902.0715-.2154.1736l-2.4915 10.1404c-.0302.124.0416.249.1605.281.1193.032.2399-.043.2702-.167l.014-.057h3.8948l.0038.03c.0142.115.1087.201.2202.201h1.9938c.0722 0 .1335-.038.1742-.094l3.2698.094h.0062c.0295 0 .0578-.006.0838-.017.01-.005.0175-.013.0268-.018.0147-.009.0303-.017.0425-.029.0087-.009.014-.02.0213-.03.0094-.013.0202-.025.0269-.04.0056-.013.0067-.027.01-.041.0036-.014.0096-.027.0105-.042.1702-3.0143.8884-4.8882 2.4022-6.2666.0706-.0645.0944-.1683.0595-.2589z" fill="#7fb241"/><path d="m24.551 100.141h-17.10206c-.494 0-.896.417-.896.929 0 .513.402.93.896.93h17.10206c.4942 0 .896-.417.896-.93 0-.512-.4018-.929-.896-.929z" fill="#a07e63"/><path d="m25.4502 95.1629c-.042-.058-.108-.0924-.178-.0924h-.2391c0-.03-.0056-.0604-.0176-.0899-.8922-2.1884-2.5799-3.6412-5.0168-4.3185-.0889-.0247-.1825.0097-.2367.0864-.0542.0768-.0575.1798-.0082.2601.7613 1.2407 1.3122 2.7546 1.674 4.6209-1.3442-1.2536-2.9031-1.8191-5.1966-1.9147-.0923-.0053-.1805.0539-.2154.1447-.0349.0906-.0109.1944.0598.2589 1.5136 1.3784 2.2318 3.2523 2.402 6.2666.0002.004.0024.007.0029.011.0022.021.0073.042.0153.062.0022.006.0036.012.006.017.0011.002.0013.004.0025.007.0106.02.0246.038.0404.054.0038.004.0082.006.0124.01.0152.013.0314.024.0494.033.0064.003.0124.006.0191.008.0233.009.0475.015.0731.015h.0004.0003 5.1261c.0985 0 .1852-.067.2132-.165l1.4464-5.0707c.02-.0696.0071-.145-.0349-.2034z" fill="#719c40"/><path d="m35.9841 93.8595c-.0349-.0906-.1198-.1468-.2153-.1447-2.2933.0956-3.8522.6611-5.1966 1.9147.3617-1.8661.9126-3.38 1.6739-4.6207.0494-.0802.0458-.1835-.0082-.26-.054-.0766-.148-.1109-.2366-.0865-2.2125.6148-3.8053 1.8715-4.7482 3.7353l-1.0378-4.224c-.0251-.1021-.1138-.1736-.2153-.1736-.1016 0-.1902.0715-.2154.1736l-2.4915 10.1404c-.0302.124.0416.249.1605.281.1193.032.2399-.043.2702-.167l.014-.057h3.8948l.0038.03c.0142.115.1087.201.2202.201h1.9938c.0722 0 .1335-.038.1742-.094l3.2698.094h.0062c.0295 0 .0578-.006.0838-.017.01-.005.0175-.013.0268-.018.0147-.009.0303-.017.0425-.029.0087-.009.014-.02.0213-.03.0094-.013.0202-.025.0269-.04.0056-.013.0067-.027.01-.041.0036-.014.0096-.027.0105-.042.1702-3.0143.8884-4.8882 2.4022-6.2666.0706-.0645.0944-.1683.0595-.2589z" fill="#7fb241"/><path d="m34.551 100.141h-17.1021c-.494 0-.896.417-.896.929 0 .513.402.93.896.93h17.1021c.4942 0 .896-.417.896-.93 0-.512-.4018-.929-.896-.929z" fill="#a07e63"/></svg>