<svg width="128" height="128" version="1.1" viewBox="0 0 128 128" xmlns="http://www.w3.org/2000/svg"><rect x="3" y="3" width="122" height="122" rx="9" fill="#6fdc8c" stroke="#198038" stroke-width="6"/><g><path d="m77.333 24v80h-53.333v-80zm-5.3333 5.3333h-42.667v69.333h42.667zm-34.667 16h26.667c2.6667 0 2.6667 5.3334 0 5.3334h-26.667c-2.6666 0-2.6666-5.3334 0-5.3334zm0 10.667h26.667c2.6667 0 2.6667 5.3333 0 5.3333h-26.667c-2.6666 0-2.6666-5.3333 0-5.3333zm0 10.667h26.667c2.6667 0 2.6667 5.3333 0 5.3333h-26.667c-2.6666 0-2.6666-5.3333 0-5.3333zm0 10.667h26.667c2.6667 0 2.6667 5.3334 0 5.3334h-26.667c-2.6666 0-2.6666-5.3334 0-5.3334z"/><path d="m82.667 93.333c2.6666 2.6667 13.333 2.6667 16 0 0 0-5.3334 10.667-8 10.667-2.6667 0-8-10.667-8-10.667zm0-53.333c0 2.6667 16 2.6667 16 0v48c0 2.6667-16 2.6667-16 0zm8-16c-8 0-8 2.6667-8 5.3333v5.3334c0 2.6666 16 2.6666 16 0v-5.3334c0-2.6666 0-5.3333-8-5.3333z"/></g></svg>
