<svg fill="none" height="128" viewBox="0 0 128 128" width="128" xmlns="http://www.w3.org/2000/svg" xmlns:xlink="http://www.w3.org/1999/xlink"><clipPath id="a"><path d="m24 24h80v80h-80z"/></clipPath><rect fill="#9ef0f0" height="122" rx="9" stroke="#005d5d" stroke-width="6" width="122" x="3" y="3"/><g clip-path="url(#a)"><path d="m82.6668 32c0 4.4181-3.5819 8-8 8s-8-3.5819-8-8 3.5819-8 8-8 8 3.5819 8 8zm0 50.6667c-2.9456 0-5.3333 2.3877-5.3333 5.3333s2.3877 5.3333 5.3333 5.3333 5.3333-2.3877 5.3333-5.3333-2.3877-5.3333-5.3333-5.3333zm9.8133-26.1867-10.1866-10.1867c-.4806-.6-1.2048-.9525-1.9734-.96h-37.6533c-1.4725 0-2.6667 1.1942-2.6667 2.6667s1.1942 2.6667 2.6667 2.6667h14.4l-17.0667 33.6c-.0736.352-.0736.7146 0 1.0666-.3093 1.4726.6342 2.9174 2.1067 3.2267s2.9173-.6341 3.2267-2.1067l5.3333-9.12h10.6667l-10.2934 22.6134c-.2517.4183-.3808.8983-.3733 1.3863-.2944 1.473.6608 2.906 2.1333 3.2 1.4726.295 2.9056-.66 3.2-2.133l25.0667-50.0267 7.68 7.8934c1.1253.9504 2.8075.8085 3.7579-.3163.8485-1.0048.8384-2.4779-.0246-3.4704z" fill="#000"/></g></svg>