<svg width="128" height="128" version="1.1" viewBox="0 0 128 128" xmlns="http://www.w3.org/2000/svg"><rect x="3" y="3" width="122" height="122" rx="9" fill="#fa4d56" stroke="#b91c1c" stroke-width="6"/><path d="m101.792 43.1503-34.8676-10.7125c-1.9-.5837-3.95-.5837-5.8488 0l-34.8687 10.7125c-2.9425.9038-2.9425 4.795 0 5.6988l6.0787 1.8675c-1.3337 1.6487-2.1537 3.66-2.235 5.8625-1.2037.69-2.0512 1.935-2.0512 3.4212 0 1.3475.71 2.4813 1.7325 3.2063l-3.1913 14.36c-.2775 1.2487.6725 2.4337 1.9513 2.4337h7.0137c1.28 0 2.23-1.185 1.9525-2.4337l-3.1912-14.36c1.0225-.725 1.7325-1.8588 1.7325-3.2063 0-1.4462-.8088-2.6562-1.9575-3.3587.095-1.8775 1.055-3.5375 2.5862-4.59l24.4463 7.5112c1.1325.3475 3.305.7813 5.8487 0l34.8689-10.7125c2.944-.905 2.944-4.795 0-5.7zm-33.6939 21.5696c-3.5662 1.095-6.605.49-8.1987 0l-18.1275-5.5688-3.1059 23.5159c0 4.4187 12.0784 8 25.3334 8s25.3333-3.5813 25.3333-8l-3.1058-23.5171z"/></svg>
