<svg width="198" height="198" version="1.1" viewBox="0 0 198 198" xmlns="http://www.w3.org/2000/svg"><path d="m98.999 0c-54.676 0-98.999 44.323-98.999 98.999 0 54.675 44.323 98.999 98.999 98.999 54.675 0 98.999-44.324 98.999-98.999 0-54.676-44.324-98.999-98.999-98.999zm0 184.48c-47.209 0-85.479-38.27-85.479-85.478 0-47.209 38.271-85.479 85.479-85.479s85.479 38.271 85.479 85.479-38.271 85.478-85.479 85.478z" fill="#DC2626"/><path d="m178.45 98.729c0 44.03-35.694 79.724-79.726 79.724-44.033 0-79.728-35.693-79.728-79.724 0-44.033 35.694-79.729 79.728-79.729 44.031 0 79.726 35.696 79.726 79.729z" fill="#FEF08A"/><path d="m98.164 80.25c8.634 0 15.627-6.9922 15.627-15.625s-6.993-15.625-15.627-15.625c-8.6338 0-15.627 6.9922-15.627 15.625s6.993 15.625 15.627 15.625zm-10.431 48.594 5.0006-6.25-12.013-10-8.9659 11.211c-2.2268 2.773-2.2854 6.718-0.1562 9.57l9.376 12.5c1.5432 2.051 3.8872 3.125 6.2507 3.125 1.6213 0 3.2817-0.508 4.6881-1.562 3.4574-2.579 4.1411-7.481 1.5626-10.938l-5.7428-7.656zm27.874-16.25-12.013 10 5.001 6.25-5.743 7.656c-2.578 3.457-1.895 8.359 1.563 10.938 1.406 1.054 3.047 1.562 4.688 1.562 2.383 0 4.727-1.074 6.25-3.125l9.376-12.5c2.13-2.852 2.071-6.797-0.156-9.57l-8.966-11.211zm18.635-35.274c-2.48-3.5351-7.344-4.375-10.88-1.9141l-7.93 5.5665c-10.295 7.2265-24.261 7.2265-34.536 0l-7.9306-5.5469c-3.5356-2.4805-8.3994-1.6211-10.88 1.8945-2.4808 3.5352-1.6213 8.3985 1.8947 10.879l7.9306 5.5664c3.3207 2.3242 6.9148 4.0821 10.626 5.4492v6.0352h31.254v-6.0156c3.711-1.3672 7.305-3.125 10.626-5.4492l7.931-5.5664c3.535-2.5 4.375-7.3633 1.894-10.898z"/></svg>
