<svg width="128" height="128" fill="none" version="1.1" viewBox="0 0 128 128" xmlns="http://www.w3.org/2000/svg"><rect width="128" height="128" rx="10" fill="#FFEDD5"/><path d="m10.667 10.667v106.67h106.67v-106.67h-106.67z" stroke="#E8E800" stroke-linecap="round" stroke-linejoin="round" stroke-width="5"/><g fill="#fff" stroke="#343A3F"><path d="m10.667 17.333c3.6819 0 6.6666-2.9847 6.6666-6.6666 0-3.6819-2.9847-6.6667-6.6666-6.6667-3.6819 0-6.6667 2.9848-6.6667 6.6667 0 3.6819 2.9848 6.6666 6.6667 6.6666z"/><path d="m10.667 124c3.6819 0 6.6666-2.985 6.6666-6.667s-2.9847-6.666-6.6666-6.666c-3.6819 0-6.6667 2.984-6.6667 6.666s2.9848 6.667 6.6667 6.667z"/><path d="m117.33 124c3.682 0 6.667-2.985 6.667-6.667s-2.985-6.666-6.667-6.666-6.666 2.984-6.666 6.666 2.984 6.667 6.666 6.667z"/><path d="m117.33 17.333c3.682 0 6.667-2.9847 6.667-6.6666 0-3.6819-2.985-6.6667-6.667-6.6667s-6.666 2.9848-6.666 6.6667c0 3.6819 2.984 6.6666 6.666 6.6666z"/></g><g fill="#343A3F"><path d="m11 69c2.7614 0 5-2.2386 5-5s-2.2386-5-5-5c-2.7614 0-5 2.2386-5 5s2.2386 5 5 5z"/><path d="m117 69c2.761 0 5-2.2386 5-5s-2.239-5-5-5-5 2.2386-5 5 2.239 5 5 5z"/><path d="m64 16c2.7614 0 5-2.2386 5-5 0-2.7614-2.2386-5-5-5s-5 2.2386-5 5c0 2.7614 2.2386 5 5 5z"/><path d="m64 122c2.7614 0 5-2.239 5-5s-2.2386-5-5-5-5 2.239-5 5 2.2386 5 5 5z"/></g><g stroke="#000" stroke-linecap="round" stroke-linejoin="round"><path d="m64 50.044v41.956m0-41.956c-3.6338-2.5044-8.568-4.0439-14-4.0439s-10.366 1.5395-14 4.0439v41.956c3.6338-2.5045 8.568-4.0439 14-4.0439s10.366 1.5394 14 4.0439m0-41.956c3.6338-2.5044 8.568-4.0439 14-4.0439 5.4351 0 10.366 1.5395 14 4.0439v41.956c-3.6338-2.5045-8.5649-4.0439-14-4.0439-5.432 0-10.366 1.5394-14 4.0439" stroke-width="4"/><g stroke-width="2"><path d="m69 60.572s5-1.4286 8.5-1.4286 8.5 1.4286 8.5 1.4286"/><path d="m69 74.857s5-1.4286 8.5-1.4286 8.5 1.4286 8.5 1.4286"/><path d="m69 67.714s5-1.4286 8.5-1.4286 8.5 1.4286 8.5 1.4286"/><path d="m69 82s5-1.4286 8.5-1.4286 8.5 1.4286 8.5 1.4286"/><path d="m69 53.429s5-1.4286 8.5-1.4286 8.5 1.4286 8.5 1.4286"/><path d="m42 60.644s5-1.5254 8.5-1.5254 8.5 1.5254 8.5 1.5254"/><path d="m42 74.881s5-1.5254 8.5-1.5254 8.5 1.5254 8.5 1.5254"/><path d="m42 67.763s5-1.5254 8.5-1.5254 8.5 1.5254 8.5 1.5254"/><path d="m42 82s5-1.5255 8.5-1.5255 8.5 1.5255 8.5 1.5255"/><path d="m42 53.525s5-1.5254 8.5-1.5254 8.5 1.5254 8.5 1.5254"/></g><path d="m36 42 28-6 28 6" stroke-width="4"/></g></svg>
