<svg width="198" height="198" fill="none" version="1.1" viewBox="0 0 198 198" xmlns="http://www.w3.org/2000/svg"><path d="m98.999 0c-54.676 0-98.999 44.323-98.999 98.999 0 54.675 44.323 98.999 98.999 98.999 54.675 0 98.999-44.324 98.999-98.999 0-54.676-44.324-98.999-98.999-98.999zm0 184.48c-47.209 0-85.479-38.27-85.479-85.478 0-47.209 38.271-85.479 85.479-85.479s85.479 38.271 85.479 85.479-38.271 85.478-85.479 85.478z" fill="#DC2626"/><path d="m178.45 98.729c0 44.03-35.694 79.724-79.726 79.724-44.033 0-79.728-35.693-79.728-79.724 0-44.033 35.694-79.729 79.728-79.729 44.031 0 79.726 35.696 79.726 79.729z" fill="#FACC15"/><g stroke="#000" stroke-linecap="round" stroke-linejoin="round"><g transform="translate(0,-2)" stroke-width="3"><path d="m58.333 95.963s10-2.6168 17-2.6168 17 2.6168 17 2.6168"/><path d="m58.333 108.31s10-2.616 17-2.616 17 2.616 17 2.616"/><path d="m58.333 120.65s10-2.617 17-2.617 17 2.617 17 2.617"/><path d="m58.333 133s10-2.617 17-2.617 17 2.617 17 2.617"/><path d="m58.333 83.617s10-2.6168 17-2.6168 17 2.6168 17 2.6168"/><path d="m106.33 95.963s10-2.6168 17-2.6168 17 2.6168 17 2.6168"/><path d="m106.33 108.31s10-2.616 17-2.616 17 2.616 17 2.616"/><path d="m106.33 120.65s10-2.617 17-2.617 17 2.617 17 2.617"/><path d="m106.33 133s10-2.617 17-2.617 17 2.617 17 2.617"/><path d="m106.33 83.617s10-2.6168 17-2.6168 17 2.6168 17 2.6168"/></g><path d="m99 74.857v71.143m0-71.143c-6.0996-4.2467-14.382-6.8571-23.5-6.8571s-17.4 2.6104-23.5 6.8571v71.143c6.0996-4.247 14.382-6.857 23.5-6.857s17.4 2.61 23.5 6.857m0-71.143c6.1-4.2467 14.382-6.8571 23.5-6.8571 9.123 0 17.4 2.6104 23.5 6.8571v71.143c-6.1-4.247-14.377-6.857-23.5-6.857-9.118 0-17.4 2.61-23.5 6.857" stroke-width="5"/><path d="m52 62 47-10 47 10" stroke-width="5"/></g></svg>
